<svg width="90" height="50" viewBox="0 0 90 50" fill="none" xmlns="http://www.w3.org/2000/svg">
<path d="M82.5007 13.8158C81.9091 13.8158 81.4309 14.3059 81.4309 14.9107C81.4309 15.5154 81.9098 16.0048 82.5007 16.0048C83.0917 16.0048 83.5706 15.5146 83.5706 14.9107C83.5706 14.3067 83.0917 13.8158 82.5007 13.8158ZM82.5007 15.7872C82.0279 15.7872 81.645 15.3946 81.645 14.9107C81.645 14.4267 82.0279 14.0349 82.5007 14.0349C82.9736 14.0349 83.3557 14.4275 83.3557 14.9107C83.3557 15.3938 82.9729 15.7872 82.5007 15.7872Z" fill="#E11F2A"/>
<path d="M82.9638 14.6366C82.9638 14.3849 82.8178 14.2734 82.5265 14.2734H82.0543V15.5471H82.242V14.9951H82.4569L82.7845 15.5471H82.9933L82.6422 14.9865C82.8246 14.9633 82.9645 14.8642 82.9645 14.6366H82.9638ZM82.242 14.8317V14.4376H82.4977C82.6271 14.4376 82.7663 14.467 82.7663 14.6249C82.7663 14.8201 82.6233 14.8317 82.4644 14.8317H82.2412H82.242Z" fill="#E11F2A"/>
<path d="M23.3455 13.8158L6.42773 35.7093H19.9021L23.3477 13.8158H23.3455Z" fill="#E11F2A"/>
<path d="M34.0408 13.8158H25.1326L21.6877 35.7093H30.4954L34.0408 13.8158Z" fill="#E11F2A"/>
<path d="M47.4177 13.8158L43.9728 35.7069C49.8411 35.6481 55.3613 30.7708 56.3358 24.7621C57.3141 18.7187 53.3215 13.8197 47.4177 13.8158Z" fill="#E11F2A"/>
<path d="M36.7147 13.8158L33.17 35.7093H42.0821L42.0828 35.7077H42.188L45.6328 13.8158H36.7147Z" fill="#E11F2A"/>
<path d="M70.588 13.8158C64.6811 13.8158 59.0974 18.7171 58.1168 24.7621C57.1416 30.7909 61.1107 35.6791 66.9903 35.7077V35.7147H67.1522L70.6001 13.8158H70.588Z" fill="#E11F2A"/>
<path d="M72.3864 13.8158L68.9401 35.7054C74.8061 35.6435 80.3194 30.7684 81.2924 24.7614C82.2715 18.721 78.2842 13.8243 72.3864 13.8158Z" fill="#E11F2A"/>
</svg>
