<svg width="952" height="281" viewBox="0 0 952 281" fill="none" xmlns="http://www.w3.org/2000/svg">
<path d="M0 0H952V261C952 272.046 943.046 281 932 281H20C8.95433 281 0 272.046 0 261V0Z" fill="#E3E7F2"/>
<path d="M24 40C24 31.1635 31.1634 24 40 24H72V257H40C31.1634 257 24 249.837 24 241V40Z" fill="black" fill-opacity="0.1"/>
<path fill-rule="evenodd" clip-rule="evenodd" d="M62.698 221C62.698 212.882 56.1172 206.301 47.9994 206.301C39.8816 206.301 33.3008 212.882 33.3008 221C33.3008 229.118 39.8816 235.699 47.9994 235.699C56.1172 235.699 62.698 229.118 62.698 221ZM59.7576 221C59.7576 214.506 54.4929 209.241 47.9987 209.241C41.5044 209.241 36.2398 214.506 36.2398 221C36.2398 227.494 41.5044 232.759 47.9987 232.759C54.4929 232.759 59.7576 227.494 59.7576 221Z" fill="#474A56"/>
<path fill-rule="evenodd" clip-rule="evenodd" d="M61.4731 221C61.4731 213.559 55.4407 207.526 47.9994 207.526C40.558 207.526 34.5257 213.559 34.5257 221C34.5257 228.441 40.558 234.474 47.9994 234.474C55.4407 234.474 61.4731 228.441 61.4731 221ZM47.9987 208.016C55.1694 208.016 60.9824 213.829 60.9824 221C60.9824 228.171 55.1694 233.984 47.9987 233.984C40.828 233.984 35.0149 228.171 35.0149 221C35.0149 213.829 40.828 208.016 47.9987 208.016ZM47.9994 206.301C56.1172 206.301 62.698 212.882 62.698 221C62.698 229.118 56.1172 235.699 47.9994 235.699C39.8816 235.699 33.3008 229.118 33.3008 221C33.3008 212.882 39.8816 206.301 47.9994 206.301ZM47.9987 209.241C54.4929 209.241 59.7576 214.506 59.7576 221C59.7576 227.494 54.4929 232.759 47.9987 232.759C41.5044 232.759 36.2398 227.494 36.2398 221C36.2398 214.506 41.5044 209.241 47.9987 209.241Z" fill="#474A56"/>
<path fill-rule="evenodd" clip-rule="evenodd" d="M46.7238 208.401C40.1612 219.344 43.9894 229.759 46.7238 233.599C46.7238 223.809 54.4724 221.381 59.8194 221.343C60.1188 221.354 60.4252 221.36 60.7386 221.36C60.4419 221.346 60.1348 221.34 59.8194 221.343C48.5656 220.915 47.0041 212.609 46.7238 208.401ZM49.9584 220.999C49.9584 219.375 48.6422 218.059 47.0187 218.059C45.3951 218.059 44.0789 219.375 44.0789 220.999C44.0789 222.623 45.3951 223.939 47.0187 223.939C48.6422 223.939 49.9584 222.623 49.9584 220.999Z" fill="#474A56"/>
<path fill-rule="evenodd" clip-rule="evenodd" d="M45.9671 229.595C46.4315 227.757 47.2193 226.233 48.2291 224.985C47.8461 225.101 47.4397 225.164 47.0187 225.164C46.0986 225.164 45.2483 224.865 44.5591 224.36C44.845 226.345 45.3664 228.117 45.9671 229.595ZM44.6023 217.607C45.2837 217.12 46.1178 216.834 47.0187 216.834C47.4116 216.834 47.7919 216.889 48.1523 216.991C48.1509 216.989 48.1496 216.987 48.1483 216.985C47.1148 215.487 46.4842 213.867 46.0953 212.35C45.3483 214.149 44.8705 215.911 44.6023 217.607ZM51.0445 219.929C51.135 220.27 51.1833 220.629 51.1833 220.999C51.1833 221.569 51.0687 222.113 50.8612 222.608C51.6898 222.06 52.5682 221.62 53.4646 221.273C52.5647 220.892 51.7611 220.439 51.0445 219.929ZM59.8391 220.118C54.5754 219.911 51.7532 217.896 50.1648 215.594C48.5226 213.213 48.0815 210.354 47.9459 208.32C47.9103 207.785 47.5317 207.336 47.0112 207.21C46.4906 207.085 45.9487 207.312 45.6733 207.771C38.7959 219.239 42.7898 230.186 45.726 234.309C46.0351 234.743 46.5893 234.928 47.0967 234.765C47.6042 234.603 47.9486 234.131 47.9486 233.599C47.9486 229.082 49.7086 226.41 51.9719 224.815C54.295 223.179 57.2806 222.59 59.8013 222.568C60.1076 222.579 60.4199 222.585 60.7386 222.585C61.4043 222.585 61.9481 222.053 61.9631 221.387C61.9781 220.722 61.4588 220.166 60.7937 220.136C60.4848 220.122 60.1659 220.116 59.8391 220.118ZM45.3038 220.999C45.3038 221.946 46.0716 222.714 47.0187 222.714C47.9657 222.714 48.7335 221.946 48.7335 220.999C48.7335 220.052 47.9657 219.284 47.0187 219.284C46.0716 219.284 45.3038 220.052 45.3038 220.999Z" fill="#474A56"/>
<path d="M119.631 56.761L119.631 31.6575C119.631 29.1219 121.769 27.1116 124.3 27.2668L147.572 28.6946C149.893 28.837 151.703 30.7611 151.703 33.0862L151.703 55.3323C151.703 57.6573 149.893 59.5814 147.572 59.7239L124.3 61.1516C121.769 61.3069 119.631 59.2965 119.631 56.761Z" fill="#F1F3F9" stroke="#B5BAC7"/>
<path d="M124.285 60.9493C124.285 59.3215 125.62 58.0096 127.248 58.0382L143.239 58.3204C144.673 58.3457 145.823 59.5151 145.823 60.9493C145.823 62.3835 144.673 63.553 143.239 63.5782L127.248 63.8605C125.62 63.8891 124.285 62.5772 124.285 60.9493Z" fill="#F1F3F9" stroke="#B5BAC7"/>
<path d="M124.285 27.4719C124.285 25.844 125.62 24.5321 127.248 24.5607L143.239 24.843C144.673 24.8682 145.823 26.0376 145.823 27.4719C145.823 28.9061 144.673 30.0755 143.239 30.1008L127.248 30.383C125.62 30.4116 124.285 29.0997 124.285 27.4719Z" fill="#F1F3F9" stroke="#B5BAC7"/>
<rect x="150.252" y="51.6714" width="14.9235" height="3.89953" rx="1.94977" transform="rotate(-90 150.252 51.6714)" fill="#F1F3F9" stroke="#B5BAC7"/>
<path d="M131.487 48.3561C129.234 48.3561 127.764 46.3963 127.764 43.922C127.764 41.4723 129.258 39.4879 131.512 39.4879C133.753 39.4879 135.235 41.4478 135.235 43.922C135.235 46.3718 133.741 48.3561 131.487 48.3561ZM131.512 46.9965C132.847 46.9965 133.68 45.6369 133.68 43.922C133.68 42.2317 132.81 40.8476 131.487 40.8476C130.164 40.8476 129.319 42.1949 129.319 43.922C129.319 45.6124 130.177 46.9965 131.512 46.9965ZM140.976 48.2091V46.286H136.652L136.37 45.2081L141.135 39.5737H142.421V45.0489H143.646V46.286H142.421V48.2091H140.976ZM138.158 45.0489H140.976V41.656L138.158 45.0489Z" fill="#5F2167"/>
<path d="M119.631 113.182L119.631 88.0784C119.631 85.5429 121.769 83.5325 124.3 83.6878L147.572 85.1155C149.893 85.258 151.703 87.182 151.703 89.5071L151.703 111.753C151.703 114.078 149.893 116.002 147.572 116.145L124.3 117.573C121.769 117.728 119.631 115.717 119.631 113.182Z" fill="#F1F3F9" stroke="#B5BAC7"/>
<path d="M124.285 117.37C124.285 115.742 125.62 114.431 127.248 114.459L143.239 114.741C144.673 114.767 145.823 115.936 145.823 117.37C145.823 118.805 144.673 119.974 143.239 119.999L127.248 120.281C125.62 120.31 124.285 118.998 124.285 117.37Z" fill="#F1F3F9" stroke="#B5BAC7"/>
<path d="M124.285 83.8928C124.285 82.265 125.62 80.953 127.248 80.9817L143.239 81.2639C144.673 81.2892 145.823 82.4586 145.823 83.8928C145.823 85.327 144.673 86.4965 143.239 86.5217L127.248 86.804C125.62 86.8326 124.285 85.5206 124.285 83.8928Z" fill="#F1F3F9" stroke="#B5BAC7"/>
<rect x="150.252" y="108.092" width="14.9235" height="3.89953" rx="1.94977" transform="rotate(-90 150.252 108.092)" fill="#F1F3F9" stroke="#B5BAC7"/>
<path d="M132.43 104.777C130.176 104.777 128.706 102.817 128.706 100.343C128.706 97.8932 130.201 95.9089 132.454 95.9089C134.696 95.9089 136.178 97.8687 136.178 100.343C136.178 102.793 134.684 104.777 132.43 104.777ZM132.454 103.417C133.79 103.417 134.622 102.058 134.622 100.343C134.622 98.6526 133.753 97.2685 132.43 97.2685C131.107 97.2685 130.262 98.6159 130.262 100.343C130.262 102.033 131.119 103.417 132.454 103.417ZM140.562 104.777C139.067 104.777 138.002 104.152 137.279 103.27L138.332 102.291C138.945 103.013 139.631 103.417 140.586 103.417C141.431 103.417 142.068 102.903 142.068 102.095C142.068 101.249 141.296 100.772 140.096 100.772H139.398L139.153 99.8285L141.468 97.3665H137.757V96.0559H143.428V97.1828L141.039 99.6325C142.399 99.8285 143.562 100.527 143.562 102.07C143.562 103.65 142.338 104.777 140.562 104.777Z" fill="#5F2167"/>
<path d="M119.631 193.603L119.631 168.499C119.631 165.964 121.769 163.954 124.3 164.109L147.572 165.537C149.893 165.679 151.703 167.603 151.703 169.928L151.703 192.174C151.703 194.499 149.893 196.423 147.572 196.566L124.3 197.994C121.769 198.149 119.631 196.139 119.631 193.603Z" fill="#F1F3F9" stroke="#B5BAC7"/>
<path d="M124.285 197.791C124.285 196.163 125.62 194.852 127.248 194.88L143.239 195.162C144.673 195.188 145.823 196.357 145.823 197.791C145.823 199.226 144.673 200.395 143.239 200.42L127.248 200.702C125.62 200.731 124.285 199.419 124.285 197.791Z" fill="#F1F3F9" stroke="#B5BAC7"/>
<path d="M124.285 164.314C124.285 162.686 125.62 161.374 127.248 161.403L143.239 161.685C144.673 161.71 145.823 162.88 145.823 164.314C145.823 165.748 144.673 166.918 143.239 166.943L127.248 167.225C125.62 167.254 124.285 165.942 124.285 164.314Z" fill="#F1F3F9" stroke="#B5BAC7"/>
<rect x="150.252" y="188.513" width="14.9235" height="3.89953" rx="1.94977" transform="rotate(-90 150.252 188.513)" fill="#F1F3F9" stroke="#B5BAC7"/>
<path d="M132.46 185.198C130.206 185.198 128.736 183.238 128.736 180.764C128.736 178.314 130.231 176.33 132.484 176.33C134.726 176.33 136.208 178.29 136.208 180.764C136.208 183.214 134.714 185.198 132.46 185.198ZM132.484 183.838C133.819 183.838 134.652 182.479 134.652 180.764C134.652 179.074 133.783 177.69 132.46 177.69C131.137 177.69 130.292 179.037 130.292 180.764C130.292 182.454 131.149 183.838 132.484 183.838ZM137.382 185.051V183.863L140.334 181.352C141.51 180.36 141.939 179.809 141.939 179.037C141.939 178.192 141.339 177.702 140.555 177.702C139.771 177.702 139.232 178.131 138.57 178.988L137.505 178.155C138.325 177.004 139.134 176.354 140.665 176.354C142.343 176.354 143.494 177.383 143.494 178.939C143.494 180.286 142.772 181.009 141.265 182.258L139.501 183.728H143.58V185.051H137.382Z" fill="#5F2167"/>
<path d="M119.631 250.024L119.631 224.92C119.631 222.385 121.769 220.374 124.3 220.53L147.572 221.958C149.893 222.1 151.703 224.024 151.703 226.349L151.703 248.595C151.703 250.92 149.893 252.844 147.572 252.987L124.3 254.415C121.769 254.57 119.631 252.559 119.631 250.024Z" fill="#F1F3F9" stroke="#B5BAC7"/>
<path d="M124.285 254.212C124.285 252.584 125.62 251.272 127.248 251.301L143.239 251.583C144.673 251.609 145.823 252.778 145.823 254.212C145.823 255.646 144.673 256.816 143.239 256.841L127.248 257.123C125.62 257.152 124.285 255.84 124.285 254.212Z" fill="#F1F3F9" stroke="#B5BAC7"/>
<path d="M124.285 220.735C124.285 219.107 125.62 217.795 127.248 217.824L143.239 218.106C144.673 218.131 145.823 219.301 145.823 220.735C145.823 222.169 144.673 223.338 143.239 223.364L127.248 223.646C125.62 223.675 124.285 222.363 124.285 220.735Z" fill="#F1F3F9" stroke="#B5BAC7"/>
<rect x="150.252" y="244.934" width="14.9235" height="3.89953" rx="1.94977" transform="rotate(-90 150.252 244.934)" fill="#F1F3F9" stroke="#B5BAC7"/>
<path d="M133.228 241.619C130.974 241.619 129.504 239.659 129.504 237.185C129.504 234.735 130.998 232.751 133.252 232.751C135.494 232.751 136.976 234.711 136.976 237.185C136.976 239.635 135.482 241.619 133.228 241.619ZM133.252 240.259C134.587 240.259 135.42 238.9 135.42 237.185C135.42 235.495 134.551 234.111 133.228 234.111C131.905 234.111 131.06 235.458 131.06 237.185C131.06 238.875 131.917 240.259 133.252 240.259ZM139.85 241.472V234.368L138.307 234.796L137.988 233.572L140.291 232.837H141.344V241.472H139.85Z" fill="#5F2167"/>
<path d="M202.283 56.762L202.283 31.6584C202.283 29.1229 204.421 27.1125 206.952 27.2678L230.225 28.6956C232.545 28.838 234.355 30.7621 234.355 33.0872L234.355 55.3333C234.355 57.6583 232.545 59.5824 230.225 59.7249L206.952 61.1526C204.421 61.3079 202.283 59.2975 202.283 56.762Z" fill="#848CA2" stroke="#B5BAC7"/>
<path d="M206.937 60.9493C206.937 59.3215 208.273 58.0096 209.9 58.0382L225.892 58.3204C227.326 58.3457 228.476 59.5151 228.476 60.9493C228.476 62.3835 227.326 63.553 225.892 63.5782L209.9 63.8605C208.273 63.8891 206.938 62.5772 206.937 60.9493Z" fill="#848CA2" stroke="#B5BAC7"/>
<path d="M206.937 27.4717C206.937 25.8439 208.273 24.532 209.9 24.5606L225.892 24.8428C227.326 24.8681 228.476 26.0375 228.476 27.4717C228.476 28.9059 227.326 30.0754 225.892 30.1006L209.9 30.3829C208.273 30.4115 206.938 29.0996 206.937 27.4717Z" fill="#848CA2" stroke="#B5BAC7"/>
<rect x="232.904" y="51.6732" width="14.9235" height="3.89953" rx="1.94977" transform="rotate(-90 232.904 51.6732)" fill="#848CA2" stroke="#B5BAC7"/>
<line opacity="0.35" x1="0.918661" y1="-0.918661" x2="47.5842" y2="-0.918661" transform="matrix(-0.707107 0.707107 -0.707107 -0.707106 236.08 27.6751)" stroke="#E11F2A" stroke-width="1.83732" stroke-linecap="round"/>
<line opacity="0.35" x1="0.918661" y1="-0.918661" x2="47.5842" y2="-0.918661" transform="matrix(0.707107 0.707106 0.707107 -0.707107 201.783 27.6751)" stroke="#E11F2A" stroke-width="1.83732" stroke-linecap="round"/>
<path d="M214.951 48.3573C212.697 48.3573 211.227 46.3975 211.227 43.9232C211.227 41.4735 212.721 39.4892 214.975 39.4892C217.217 39.4892 218.699 41.449 218.699 43.9232C218.699 46.373 217.204 48.3573 214.951 48.3573ZM214.975 46.9977C216.31 46.9977 217.143 45.6381 217.143 43.9232C217.143 42.2329 216.274 40.8488 214.951 40.8488C213.628 40.8488 212.783 42.1962 212.783 43.9232C212.783 45.6136 213.64 46.9977 214.975 46.9977ZM223.251 48.3328C221.377 48.3328 219.98 47.3529 219.98 45.8586C219.98 44.8174 220.556 44.1682 221.524 43.764C220.801 43.3843 220.274 42.8086 220.274 41.8287C220.274 40.5181 221.536 39.5137 223.251 39.5137C224.966 39.5137 226.227 40.5058 226.227 41.8532C226.227 42.8086 225.701 43.3843 224.978 43.764C225.909 44.1927 226.521 44.8052 226.521 45.8463C226.521 47.3774 225.125 48.3328 223.251 48.3328ZM223.251 43.2618C224.133 43.2618 224.782 42.7351 224.782 41.9757C224.782 41.3142 224.17 40.7753 223.251 40.7753C222.332 40.7753 221.72 41.3142 221.72 41.9879C221.72 42.7351 222.369 43.2618 223.251 43.2618ZM223.251 47.0712C224.378 47.0712 225.051 46.4955 225.051 45.7606C225.051 44.9766 224.268 44.4622 223.251 44.4622C222.234 44.4622 221.45 44.9766 221.45 45.7851C221.45 46.4832 222.124 47.0712 223.251 47.0712Z" fill="white"/>
<path d="M202.283 113.182L202.283 88.0784C202.283 85.5429 204.421 83.5325 206.952 83.6878L230.225 85.1155C232.545 85.258 234.355 87.182 234.355 89.5071L234.355 111.753C234.355 114.078 232.545 116.002 230.225 116.145L206.952 117.573C204.421 117.728 202.283 115.717 202.283 113.182Z" fill="#F1F3F9" stroke="#B5BAC7"/>
<path d="M206.937 117.37C206.937 115.742 208.273 114.431 209.9 114.459L225.892 114.741C227.326 114.767 228.476 115.936 228.476 117.37C228.476 118.805 227.326 119.974 225.892 119.999L209.9 120.281C208.273 120.31 206.938 118.998 206.937 117.37Z" fill="#F1F3F9" stroke="#B5BAC7"/>
<path d="M206.937 83.8928C206.937 82.265 208.273 80.953 209.9 80.9817L225.892 81.2639C227.326 81.2892 228.476 82.4586 228.476 83.8928C228.476 85.327 227.326 86.4965 225.892 86.5217L209.9 86.804C208.273 86.8326 206.938 85.5206 206.937 83.8928Z" fill="#F1F3F9" stroke="#B5BAC7"/>
<rect x="232.904" y="108.092" width="14.9235" height="3.89953" rx="1.94977" transform="rotate(-90 232.904 108.092)" fill="#F1F3F9" stroke="#B5BAC7"/>
<path d="M214.744 104.777C212.49 104.777 211.02 102.817 211.02 100.343C211.02 97.8932 212.514 95.9089 214.768 95.9089C217.01 95.9089 218.492 97.8687 218.492 100.343C218.492 102.793 216.998 104.777 214.744 104.777ZM214.768 103.417C216.103 103.417 216.936 102.058 216.936 100.343C216.936 98.6526 216.067 97.2685 214.744 97.2685C213.421 97.2685 212.576 98.6159 212.576 100.343C212.576 102.033 213.433 103.417 214.768 103.417ZM220.149 104.63L223.995 97.3788H219.684V96.0559H225.71V97.195L221.839 104.63H220.149Z" fill="#5F2167"/>
<path d="M202.283 193.604L202.283 168.5C202.283 165.965 204.421 163.955 206.952 164.11L230.225 165.538C232.545 165.68 234.355 167.604 234.355 169.929L234.355 192.175C234.355 194.5 232.545 196.424 230.225 196.567L206.952 197.995C204.421 198.15 202.283 196.139 202.283 193.604Z" fill="#848CA2" stroke="#B5BAC7"/>
<path d="M206.937 197.791C206.937 196.163 208.273 194.852 209.9 194.88L225.892 195.162C227.326 195.188 228.476 196.357 228.476 197.791C228.476 199.226 227.326 200.395 225.892 200.42L209.9 200.702C208.273 200.731 206.938 199.419 206.937 197.791Z" fill="#848CA2" stroke="#B5BAC7"/>
<path d="M206.937 164.314C206.937 162.686 208.273 161.374 209.9 161.403L225.892 161.685C227.326 161.71 228.476 162.879 228.476 164.314C228.476 165.748 227.326 166.917 225.892 166.943L209.9 167.225C208.273 167.254 206.938 165.942 206.937 164.314Z" fill="#848CA2" stroke="#B5BAC7"/>
<rect x="232.904" y="188.515" width="14.9235" height="3.89953" rx="1.94977" transform="rotate(-90 232.904 188.515)" fill="#848CA2" stroke="#B5BAC7"/>
<line opacity="0.35" x1="0.918661" y1="-0.918661" x2="47.5842" y2="-0.918661" transform="matrix(-0.707107 0.707107 -0.707107 -0.707106 236.08 164.517)" stroke="#E11F2A" stroke-width="1.83732" stroke-linecap="round"/>
<line opacity="0.35" x1="0.918661" y1="-0.918661" x2="47.5842" y2="-0.918661" transform="matrix(0.707107 0.707106 0.707107 -0.707107 201.783 164.517)" stroke="#E11F2A" stroke-width="1.83732" stroke-linecap="round"/>
<path d="M214.789 185.199C212.535 185.199 211.066 183.239 211.066 180.765C211.066 178.315 212.56 176.331 214.814 176.331C217.055 176.331 218.537 178.291 218.537 180.765C218.537 183.215 217.043 185.199 214.789 185.199ZM214.814 183.84C216.149 183.84 216.982 182.48 216.982 180.765C216.982 179.075 216.112 177.691 214.789 177.691C213.466 177.691 212.621 179.038 212.621 180.765C212.621 182.456 213.479 183.84 214.814 183.84ZM223.359 185.199C222.305 185.199 221.546 184.869 220.983 184.305C220.321 183.644 219.929 182.75 219.929 180.998C219.929 178.377 221.179 176.331 223.604 176.331C224.719 176.331 225.478 176.686 226.225 177.287L225.417 178.45C224.817 177.985 224.302 177.703 223.555 177.703C222.281 177.703 221.571 178.854 221.497 180.422C221.95 179.981 222.538 179.565 223.543 179.565C225.208 179.565 226.544 180.545 226.544 182.284C226.544 183.987 225.159 185.199 223.359 185.199ZM223.322 183.901C224.388 183.901 225.037 183.227 225.037 182.321C225.037 181.463 224.351 180.826 223.285 180.826C222.22 180.826 221.546 181.512 221.546 182.358C221.546 183.227 222.244 183.901 223.322 183.901Z" fill="white"/>
<path d="M202.283 250.025L202.283 224.921C202.283 222.386 204.421 220.375 206.952 220.531L230.225 221.958C232.545 222.101 234.355 224.025 234.355 226.35L234.355 248.596C234.355 250.921 232.545 252.845 230.225 252.988L206.952 254.416C204.421 254.571 202.283 252.56 202.283 250.025Z" fill="#848CA2" stroke="#B5BAC7"/>
<path d="M206.937 254.212C206.937 252.584 208.273 251.272 209.9 251.301L225.892 251.583C227.326 251.609 228.476 252.778 228.476 254.212C228.476 255.646 227.326 256.816 225.892 256.841L209.9 257.123C208.273 257.152 206.938 255.84 206.937 254.212Z" fill="#848CA2" stroke="#B5BAC7"/>
<path d="M206.937 220.735C206.937 219.107 208.273 217.795 209.9 217.824L225.892 218.106C227.326 218.131 228.476 219.3 228.476 220.735C228.476 222.169 227.326 223.338 225.892 223.364L209.9 223.646C208.273 223.674 206.938 222.362 206.937 220.735Z" fill="#848CA2" stroke="#B5BAC7"/>
<rect x="232.904" y="244.936" width="14.9235" height="3.89953" rx="1.94977" transform="rotate(-90 232.904 244.936)" fill="#848CA2" stroke="#B5BAC7"/>
<line opacity="0.35" x1="0.918661" y1="-0.918661" x2="47.5842" y2="-0.918661" transform="matrix(-0.707107 0.707107 -0.707107 -0.707106 236.08 220.938)" stroke="#E11F2A" stroke-width="1.83732" stroke-linecap="round"/>
<line opacity="0.35" x1="0.918661" y1="-0.918661" x2="47.5842" y2="-0.918661" transform="matrix(0.707107 0.707106 0.707107 -0.707107 201.783 220.938)" stroke="#E11F2A" stroke-width="1.83732" stroke-linecap="round"/>
<path d="M214.999 241.62C212.745 241.62 211.275 239.66 211.275 237.186C211.275 234.736 212.769 232.752 215.023 232.752C217.265 232.752 218.747 234.712 218.747 237.186C218.747 239.636 217.252 241.62 214.999 241.62ZM215.023 240.261C216.358 240.261 217.191 238.901 217.191 237.186C217.191 235.496 216.321 234.112 214.999 234.112C213.676 234.112 212.831 235.459 212.831 237.186C212.831 238.877 213.688 240.261 215.023 240.261ZM223.164 241.62C221.853 241.62 220.824 241.094 220.016 240.31L220.947 239.219C221.633 239.856 222.356 240.248 223.152 240.248C224.181 240.248 224.854 239.66 224.854 238.742C224.854 237.872 224.119 237.321 223.078 237.321C222.466 237.321 221.939 237.492 221.498 237.701L220.592 237.1L220.837 232.899H225.957V234.234H222.135L222 236.243C222.405 236.096 222.784 235.998 223.36 235.998C225.026 235.998 226.336 236.88 226.336 238.717C226.336 240.469 225.063 241.62 223.164 241.62Z" fill="white"/>
<path d="M284.936 56.761L284.936 31.6575C284.936 29.1219 287.074 27.1116 289.604 27.2668L312.877 28.6946C315.198 28.837 317.008 30.7611 317.008 33.0862L317.008 55.3323C317.008 57.6573 315.198 59.5814 312.877 59.7239L289.604 61.1516C287.074 61.3069 284.936 59.2965 284.936 56.761Z" fill="#F1F3F9" stroke="#B5BAC7"/>
<path d="M289.59 60.9493C289.59 59.3215 290.925 58.0096 292.553 58.0382L308.544 58.3204C309.978 58.3457 311.128 59.5151 311.128 60.9493C311.128 62.3835 309.978 63.553 308.544 63.5782L292.553 63.8605C290.925 63.8891 289.59 62.5772 289.59 60.9493Z" fill="#F1F3F9" stroke="#B5BAC7"/>
<path d="M289.59 27.4719C289.59 25.844 290.925 24.5321 292.553 24.5607L308.544 24.843C309.978 24.8682 311.128 26.0376 311.128 27.4719C311.128 28.9061 309.978 30.0755 308.544 30.1008L292.553 30.383C290.925 30.4116 289.59 29.0997 289.59 27.4719Z" fill="#F1F3F9" stroke="#B5BAC7"/>
<rect x="315.557" y="51.6714" width="14.9235" height="3.89953" rx="1.94977" transform="rotate(-90 315.557 51.6714)" fill="#F1F3F9" stroke="#B5BAC7"/>
<path d="M297.467 48.2091V41.1048L295.923 41.5335L295.605 40.3086L297.908 39.5737H298.961V48.2091H297.467ZM300.743 48.2091V47.021L303.695 44.51C304.871 43.5178 305.3 42.9666 305.3 42.1949C305.3 41.3498 304.7 40.8598 303.916 40.8598C303.132 40.8598 302.593 41.2885 301.931 42.1459L300.866 41.313C301.686 40.1616 302.495 39.5124 304.026 39.5124C305.704 39.5124 306.855 40.5413 306.855 42.0969C306.855 43.4443 306.133 44.167 304.626 45.4164L302.862 46.8862H306.941V48.2091H300.743Z" fill="#5F2167"/>
<path d="M284.936 113.183L284.936 88.0794C284.936 85.5438 287.074 83.5335 289.604 83.6888L312.877 85.1165C315.198 85.259 317.008 87.183 317.008 89.5081L317.008 111.754C317.008 114.079 315.198 116.003 312.877 116.146L289.604 117.574C287.074 117.729 284.936 115.718 284.936 113.183Z" fill="#848CA2" stroke="#B5BAC7"/>
<path d="M289.59 117.37C289.59 115.742 290.925 114.431 292.553 114.459L308.544 114.741C309.978 114.767 311.128 115.936 311.128 117.37C311.128 118.805 309.978 119.974 308.544 119.999L292.553 120.281C290.925 120.31 289.59 118.998 289.59 117.37Z" fill="#848CA2" stroke="#B5BAC7"/>
<path d="M289.59 83.8927C289.59 82.2649 290.925 80.9529 292.553 80.9816L308.544 81.2638C309.978 81.289 311.128 82.4585 311.128 83.8927C311.128 85.3269 309.978 86.4964 308.544 86.5216L292.553 86.8038C290.925 86.8325 289.59 85.5205 289.59 83.8927Z" fill="#848CA2" stroke="#B5BAC7"/>
<rect x="315.557" y="108.094" width="14.9235" height="3.89953" rx="1.94977" transform="rotate(-90 315.557 108.094)" fill="#848CA2" stroke="#B5BAC7"/>
<line opacity="0.35" x1="0.918661" y1="-0.918661" x2="47.5842" y2="-0.918661" transform="matrix(-0.707107 0.707107 -0.707107 -0.707106 318.732 84.0961)" stroke="#E11F2A" stroke-width="1.83732" stroke-linecap="round"/>
<line opacity="0.35" x1="0.918661" y1="-0.918661" x2="47.5842" y2="-0.918661" transform="matrix(0.707107 0.707106 0.707107 -0.707107 284.436 84.0961)" stroke="#E11F2A" stroke-width="1.83732" stroke-linecap="round"/>
<path d="M298.295 104.631V97.527L296.751 97.9557L296.433 96.7308L298.735 95.9959H299.789V104.631H298.295ZM303.151 104.631V97.527L301.608 97.9557L301.289 96.7308L303.592 95.9959H304.645V104.631H303.151Z" fill="white"/>
<path d="M284.936 193.603L284.936 168.499C284.936 165.964 287.074 163.954 289.604 164.109L312.877 165.537C315.198 165.679 317.008 167.603 317.008 169.928L317.008 192.174C317.008 194.499 315.198 196.423 312.877 196.566L289.604 197.994C287.074 198.149 284.936 196.139 284.936 193.603Z" fill="#F1F3F9" stroke="#B5BAC7"/>
<path d="M289.59 197.791C289.59 196.163 290.925 194.852 292.553 194.88L308.544 195.162C309.978 195.188 311.128 196.357 311.128 197.791C311.128 199.226 309.978 200.395 308.544 200.42L292.553 200.702C290.925 200.731 289.59 199.419 289.59 197.791Z" fill="#F1F3F9" stroke="#B5BAC7"/>
<path d="M289.59 164.314C289.59 162.686 290.925 161.374 292.553 161.403L308.544 161.685C309.978 161.71 311.128 162.88 311.128 164.314C311.128 165.748 309.978 166.918 308.544 166.943L292.553 167.225C290.925 167.254 289.59 165.942 289.59 164.314Z" fill="#F1F3F9" stroke="#B5BAC7"/>
<rect x="315.557" y="188.513" width="14.9235" height="3.89953" rx="1.94977" transform="rotate(-90 315.557 188.513)" fill="#F1F3F9" stroke="#B5BAC7"/>
<path d="M296.291 185.051V177.947L294.748 178.375L294.429 177.151L296.732 176.416H297.785V185.051H296.291ZM303.389 185.198C302.278 185.198 301.38 184.778 300.694 183.936C300.008 183.087 299.665 182.03 299.665 180.764C299.665 179.515 300.012 178.465 300.706 177.616C301.409 176.759 302.311 176.33 303.413 176.33C304.516 176.33 305.41 176.755 306.096 177.604C306.79 178.453 307.137 179.506 307.137 180.764C307.137 182.013 306.786 183.067 306.084 183.924C305.39 184.773 304.491 185.198 303.389 185.198ZM301.821 182.957C302.229 183.544 302.76 183.838 303.413 183.838C304.067 183.838 304.589 183.549 304.981 182.969C305.381 182.381 305.581 181.646 305.581 180.764C305.581 179.898 305.377 179.172 304.969 178.584C304.561 177.988 304.034 177.69 303.389 177.69C302.736 177.69 302.209 177.984 301.809 178.571C301.417 179.151 301.221 179.882 301.221 180.764C301.221 181.63 301.421 182.36 301.821 182.957Z" fill="#5F2167"/>
<path d="M284.936 250.026L284.936 224.923C284.936 222.387 287.074 220.377 289.604 220.532L312.877 221.96C315.198 222.102 317.007 224.026 317.007 226.352L317.007 248.598C317.007 250.923 315.198 252.847 312.877 252.989L289.604 254.417C287.074 254.572 284.936 252.562 284.936 250.026Z" fill="#5F2167" stroke="#B5BAC7"/>
<path d="M297.442 241.621C295.188 241.621 293.718 239.662 293.718 237.187C293.718 234.738 295.212 232.753 297.466 232.753C299.708 232.753 301.19 234.713 301.19 237.187C301.19 239.637 299.695 241.621 297.442 241.621ZM297.466 240.262C298.801 240.262 299.634 238.902 299.634 237.187C299.634 235.497 298.764 234.113 297.442 234.113C296.119 234.113 295.274 235.46 295.274 237.187C295.274 238.878 296.131 240.262 297.466 240.262ZM305.546 241.621C304.358 241.621 303.525 241.193 302.802 240.593L303.623 239.441C304.272 239.992 304.848 240.25 305.583 240.25C306.844 240.25 307.604 239.135 307.653 237.555C307.224 238.069 306.562 238.461 305.644 238.461C303.819 238.461 302.606 237.396 302.606 235.718C302.606 234.039 303.904 232.753 305.803 232.753C306.881 232.753 307.579 233.06 308.179 233.66C308.816 234.297 309.22 235.24 309.22 236.955C309.22 239.711 307.849 241.621 305.546 241.621ZM305.864 237.2C306.954 237.2 307.604 236.489 307.604 235.632C307.604 234.738 306.905 234.052 305.815 234.052C304.75 234.052 304.113 234.762 304.113 235.669C304.113 236.563 304.799 237.2 305.864 237.2Z" fill="white"/>
<path d="M289.59 254.212C289.59 252.584 290.925 251.273 292.553 251.301L308.544 251.583C309.978 251.609 311.128 252.778 311.128 254.212C311.128 255.647 309.978 256.816 308.544 256.841L292.553 257.123C290.925 257.152 289.59 255.84 289.59 254.212Z" fill="#5F2167" stroke="#B5BAC7"/>
<path d="M289.59 220.735C289.59 219.107 290.925 217.795 292.553 217.824L308.544 218.106C309.978 218.131 311.128 219.301 311.128 220.735C311.128 222.169 309.978 223.338 308.544 223.364L292.553 223.646C290.925 223.675 289.59 222.363 289.59 220.735Z" fill="#5F2167" stroke="#B5BAC7"/>
<rect x="315.557" y="244.935" width="14.9235" height="3.89953" rx="1.94977" transform="rotate(-90 315.557 244.935)" fill="#5F2167" stroke="#B5BAC7"/>
<path d="M367.59 56.761L367.59 31.6575C367.59 29.1219 369.728 27.1116 372.259 27.2668L395.531 28.6946C397.852 28.837 399.662 30.7611 399.662 33.0862L399.662 55.3323C399.662 57.6573 397.852 59.5814 395.531 59.7239L372.259 61.1516C369.728 61.3069 367.59 59.2965 367.59 56.761Z" fill="#F1F3F9" stroke="#B5BAC7"/>
<path d="M372.244 60.9493C372.244 59.3215 373.579 58.0096 375.207 58.0382L391.198 58.3204C392.632 58.3457 393.782 59.5151 393.782 60.9493C393.782 62.3835 392.632 63.553 391.198 63.5782L375.207 63.8605C373.579 63.8891 372.244 62.5772 372.244 60.9493Z" fill="#F1F3F9" stroke="#B5BAC7"/>
<path d="M372.244 27.4719C372.244 25.844 373.579 24.5321 375.207 24.5607L391.198 24.843C392.632 24.8682 393.782 26.0376 393.782 27.4719C393.782 28.9061 392.632 30.0755 391.198 30.1008L375.207 30.383C373.579 30.4116 372.244 29.0997 372.244 27.4719Z" fill="#F1F3F9" stroke="#B5BAC7"/>
<rect x="398.211" y="51.6714" width="14.9235" height="3.89953" rx="1.94977" transform="rotate(-90 398.211 51.6714)" fill="#F1F3F9" stroke="#B5BAC7"/>
<path d="M379.858 48.2091V41.1048L378.315 41.5335L377.996 40.3086L380.299 39.5737H381.352V48.2091H379.858ZM386.662 48.3561C385.609 48.3561 384.849 48.0254 384.286 47.4619C383.624 46.8005 383.232 45.9063 383.232 44.1547C383.232 41.5335 384.482 39.4879 386.907 39.4879C388.022 39.4879 388.781 39.8432 389.528 40.4434L388.72 41.607C388.12 41.1415 387.605 40.8598 386.858 40.8598C385.584 40.8598 384.874 42.0112 384.8 43.5791C385.253 43.1381 385.841 42.7216 386.846 42.7216C388.512 42.7216 389.847 43.7015 389.847 45.4409C389.847 47.1435 388.463 48.3561 386.662 48.3561ZM386.625 47.0577C387.691 47.0577 388.34 46.384 388.34 45.4776C388.34 44.6202 387.654 43.9833 386.588 43.9833C385.523 43.9833 384.849 44.6692 384.849 45.5144C384.849 46.384 385.547 47.0577 386.625 47.0577Z" fill="#5F2167"/>
<path d="M367.59 113.183L367.59 88.0794C367.59 85.5438 369.728 83.5335 372.259 83.6888L395.531 85.1165C397.852 85.259 399.662 87.183 399.662 89.5081L399.662 111.754C399.662 114.079 397.852 116.003 395.531 116.146L372.259 117.574C369.728 117.729 367.59 115.718 367.59 113.183Z" fill="#848CA2" stroke="#B5BAC7"/>
<path d="M372.244 117.37C372.244 115.742 373.579 114.431 375.207 114.459L391.198 114.741C392.632 114.767 393.782 115.936 393.782 117.37C393.782 118.805 392.632 119.974 391.198 119.999L375.207 120.281C373.579 120.31 372.244 118.998 372.244 117.37Z" fill="#848CA2" stroke="#B5BAC7"/>
<path d="M372.244 83.8927C372.244 82.2649 373.579 80.9529 375.207 80.9816L391.198 81.2638C392.632 81.289 393.782 82.4585 393.782 83.8927C393.782 85.3269 392.632 86.4964 391.198 86.5216L375.207 86.8038C373.579 86.8325 372.244 85.5205 372.244 83.8927Z" fill="#848CA2" stroke="#B5BAC7"/>
<rect x="398.211" y="108.094" width="14.9235" height="3.89953" rx="1.94977" transform="rotate(-90 398.211 108.094)" fill="#848CA2" stroke="#B5BAC7"/>
<line opacity="0.35" x1="0.918661" y1="-0.918661" x2="47.5842" y2="-0.918661" transform="matrix(-0.707107 0.707107 -0.707107 -0.707106 401.387 84.0961)" stroke="#E11F2A" stroke-width="1.83732" stroke-linecap="round"/>
<line opacity="0.35" x1="0.918661" y1="-0.918661" x2="47.5842" y2="-0.918661" transform="matrix(0.707107 0.707106 0.707107 -0.707107 367.09 84.0961)" stroke="#E11F2A" stroke-width="1.83732" stroke-linecap="round"/>
<path d="M380.067 104.631V97.527L378.524 97.9557L378.205 96.7308L380.508 95.9959H381.562V104.631H380.067ZM386.467 104.778C385.267 104.778 384.217 104.341 383.319 103.468L384.25 102.378C384.985 103.063 385.72 103.406 386.455 103.406C386.969 103.406 387.382 103.272 387.692 103.002C388.002 102.725 388.157 102.357 388.157 101.9C388.157 101.467 387.99 101.124 387.655 100.871C387.329 100.61 386.904 100.479 386.381 100.479C385.867 100.479 385.34 100.606 384.801 100.859L383.895 100.258L384.14 96.0571H389.26V97.3922H385.438L385.303 99.401C385.753 99.2377 386.206 99.1561 386.663 99.1561C387.537 99.1561 388.251 99.3888 388.807 99.8542C389.362 100.32 389.64 100.993 389.64 101.875C389.64 102.749 389.346 103.451 388.758 103.982C388.178 104.513 387.414 104.778 386.467 104.778Z" fill="white"/>
<path d="M367.59 193.603L367.59 168.499C367.59 165.964 369.728 163.954 372.259 164.109L395.531 165.537C397.852 165.679 399.662 167.603 399.662 169.928L399.662 192.174C399.662 194.499 397.852 196.423 395.531 196.566L372.259 197.994C369.728 198.149 367.59 196.139 367.59 193.603Z" fill="#F1F3F9" stroke="#B5BAC7"/>
<path d="M372.244 197.791C372.244 196.163 373.579 194.852 375.207 194.88L391.198 195.162C392.632 195.188 393.782 196.357 393.782 197.791C393.782 199.226 392.632 200.395 391.198 200.42L375.207 200.702C373.579 200.731 372.244 199.419 372.244 197.791Z" fill="#F1F3F9" stroke="#B5BAC7"/>
<path d="M372.244 164.314C372.244 162.686 373.579 161.374 375.207 161.403L391.198 161.685C392.632 161.71 393.782 162.88 393.782 164.314C393.782 165.748 392.632 166.918 391.198 166.943L375.207 167.225C373.579 167.254 372.244 165.942 372.244 164.314Z" fill="#F1F3F9" stroke="#B5BAC7"/>
<rect x="398.211" y="188.513" width="14.9235" height="3.89953" rx="1.94977" transform="rotate(-90 398.211 188.513)" fill="#F1F3F9" stroke="#B5BAC7"/>
<path d="M379.208 185.051V177.947L377.665 178.375L377.347 177.151L379.649 176.416H380.703V185.051H379.208ZM386.931 185.051V183.128H382.607L382.326 182.05L387.09 176.416H388.376V181.891H389.601V183.128H388.376V185.051H386.931ZM384.114 181.891H386.931V178.498L384.114 181.891Z" fill="#5F2167"/>
<path d="M367.59 250.024L367.59 224.92C367.59 222.385 369.728 220.374 372.259 220.53L395.531 221.958C397.852 222.1 399.662 224.024 399.662 226.349L399.662 248.595C399.662 250.92 397.852 252.844 395.531 252.987L372.259 254.415C369.728 254.57 367.59 252.559 367.59 250.024Z" fill="#F1F3F9" stroke="#B5BAC7"/>
<path d="M372.244 254.212C372.244 252.584 373.579 251.272 375.207 251.301L391.198 251.583C392.632 251.609 393.782 252.778 393.782 254.212C393.782 255.646 392.632 256.816 391.198 256.841L375.207 257.123C373.579 257.152 372.244 255.84 372.244 254.212Z" fill="#F1F3F9" stroke="#B5BAC7"/>
<path d="M372.244 220.735C372.244 219.107 373.579 217.795 375.207 217.824L391.198 218.106C392.632 218.131 393.782 219.301 393.782 220.735C393.782 222.169 392.632 223.338 391.198 223.364L375.207 223.646C373.579 223.675 372.244 222.363 372.244 220.735Z" fill="#F1F3F9" stroke="#B5BAC7"/>
<rect x="398.211" y="244.934" width="14.9235" height="3.89953" rx="1.94977" transform="rotate(-90 398.211 244.934)" fill="#F1F3F9" stroke="#B5BAC7"/>
<path d="M380.091 241.472V234.368L378.548 234.796L378.229 233.572L380.532 232.837H381.586V241.472H380.091ZM386.577 241.619C385.213 241.619 384.119 241.117 383.294 240.112L384.347 239.133C384.984 239.884 385.736 240.259 386.601 240.259C387.034 240.259 387.389 240.141 387.667 239.904C387.945 239.659 388.083 239.337 388.083 238.937C388.083 238.52 387.904 238.198 387.544 237.969C387.193 237.732 386.716 237.614 386.111 237.614H385.413L385.168 236.671L387.483 234.208H383.772V232.898H389.443V234.025L387.054 236.475C387.806 236.581 388.414 236.834 388.88 237.234C389.345 237.626 389.578 238.185 389.578 238.912C389.578 239.704 389.296 240.353 388.733 240.86C388.177 241.366 387.459 241.619 386.577 241.619Z" fill="#5F2167"/>
<path d="M450.242 56.761L450.242 31.6575C450.242 29.1219 452.38 27.1116 454.911 27.2668L478.184 28.6946C480.504 28.837 482.314 30.7611 482.314 33.0862L482.314 55.3323C482.314 57.6573 480.504 59.5814 478.184 59.7239L454.911 61.1516C452.38 61.3069 450.242 59.2965 450.242 56.761Z" fill="#F1F3F9" stroke="#B5BAC7"/>
<path d="M454.896 60.9493C454.896 59.3215 456.232 58.0096 457.859 58.0382L473.851 58.3204C475.285 58.3457 476.435 59.5151 476.435 60.9493C476.435 62.3835 475.285 63.553 473.851 63.5782L457.859 63.8605C456.232 63.8891 454.897 62.5772 454.896 60.9493Z" fill="#F1F3F9" stroke="#B5BAC7"/>
<path d="M454.896 27.4719C454.896 25.844 456.232 24.5321 457.859 24.5607L473.851 24.843C475.285 24.8682 476.435 26.0376 476.435 27.4719C476.435 28.9061 475.285 30.0755 473.851 30.1008L457.859 30.383C456.232 30.4116 454.897 29.0997 454.896 27.4719Z" fill="#F1F3F9" stroke="#B5BAC7"/>
<rect x="480.863" y="51.6714" width="14.9235" height="3.89953" rx="1.94977" transform="rotate(-90 480.863 51.6714)" fill="#F1F3F9" stroke="#B5BAC7"/>
<path d="M459.19 48.2091V47.021L462.142 44.51C463.318 43.5178 463.746 42.9666 463.746 42.1949C463.746 41.3498 463.146 40.8598 462.362 40.8598C461.578 40.8598 461.039 41.2885 460.378 42.1459L459.312 41.313C460.133 40.1616 460.941 39.5124 462.472 39.5124C464.15 39.5124 465.302 40.5413 465.302 42.0969C465.302 43.4443 464.579 44.167 463.073 45.4164L461.309 46.8862H465.388V48.2091H459.19ZM470.523 48.3561C468.27 48.3561 466.8 46.3963 466.8 43.922C466.8 41.4723 468.294 39.4879 470.548 39.4879C472.789 39.4879 474.271 41.4478 474.271 43.922C474.271 46.3718 472.777 48.3561 470.523 48.3561ZM470.548 46.9965C471.883 46.9965 472.716 45.6369 472.716 43.922C472.716 42.2317 471.846 40.8476 470.523 40.8476C469.2 40.8476 468.355 42.1949 468.355 43.922C468.355 45.6124 469.213 46.9965 470.548 46.9965Z" fill="#5F2167"/>
<path d="M450.242 113.183L450.242 88.0794C450.242 85.5438 452.38 83.5335 454.911 83.6888L478.184 85.1165C480.504 85.259 482.314 87.183 482.314 89.5081L482.314 111.754C482.314 114.079 480.504 116.003 478.184 116.146L454.911 117.574C452.38 117.729 450.242 115.718 450.242 113.183Z" fill="#848CA2" stroke="#B5BAC7"/>
<path d="M454.896 117.37C454.896 115.742 456.232 114.431 457.859 114.459L473.851 114.741C475.285 114.767 476.435 115.936 476.435 117.37C476.435 118.805 475.285 119.974 473.851 119.999L457.859 120.281C456.232 120.31 454.897 118.998 454.896 117.37Z" fill="#848CA2" stroke="#B5BAC7"/>
<path d="M454.896 83.8927C454.896 82.2649 456.232 80.9529 457.859 80.9816L473.851 81.2638C475.285 81.289 476.435 82.4585 476.435 83.8927C476.435 85.3269 475.285 86.4964 473.851 86.5216L457.859 86.8038C456.232 86.8325 454.897 85.5205 454.896 83.8927Z" fill="#848CA2" stroke="#B5BAC7"/>
<rect x="480.863" y="108.094" width="14.9235" height="3.89953" rx="1.94977" transform="rotate(-90 480.863 108.094)" fill="#848CA2" stroke="#B5BAC7"/>
<line opacity="0.35" x1="0.918661" y1="-0.918661" x2="47.5842" y2="-0.918661" transform="matrix(-0.707107 0.707107 -0.707107 -0.707106 484.039 84.0961)" stroke="#E11F2A" stroke-width="1.83732" stroke-linecap="round"/>
<line opacity="0.35" x1="0.918661" y1="-0.918661" x2="47.5842" y2="-0.918661" transform="matrix(0.707107 0.707106 0.707107 -0.707107 449.742 84.0961)" stroke="#E11F2A" stroke-width="1.83732" stroke-linecap="round"/>
<path d="M462.51 104.631V97.527L460.967 97.9557L460.648 96.7308L462.951 95.9959H464.005V104.631H462.51ZM468.849 104.778C467.661 104.778 466.828 104.35 466.105 103.749L466.926 102.598C467.575 103.149 468.151 103.406 468.886 103.406C470.147 103.406 470.907 102.292 470.956 100.712C470.527 101.226 469.865 101.618 468.947 101.618C467.122 101.618 465.909 100.552 465.909 98.8743C465.909 97.1963 467.207 95.9101 469.106 95.9101C470.184 95.9101 470.882 96.2163 471.482 96.8165C472.119 97.4535 472.523 98.3966 472.523 100.111C472.523 102.867 471.152 104.778 468.849 104.778ZM469.167 100.356C470.257 100.356 470.907 99.646 470.907 98.7886C470.907 97.8944 470.208 97.2085 469.118 97.2085C468.053 97.2085 467.416 97.9189 467.416 98.8253C467.416 99.7195 468.102 100.356 469.167 100.356Z" fill="white"/>
<path d="M450.242 193.604L450.242 168.5C450.242 165.965 452.38 163.955 454.911 164.11L478.184 165.538C480.504 165.68 482.314 167.604 482.314 169.929L482.314 192.175C482.314 194.5 480.504 196.424 478.184 196.567L454.911 197.995C452.38 198.15 450.242 196.139 450.242 193.604Z" fill="#848CA2" stroke="#B5BAC7"/>
<path d="M454.896 197.791C454.896 196.163 456.232 194.852 457.859 194.88L473.851 195.162C475.285 195.188 476.435 196.357 476.435 197.791C476.435 199.226 475.285 200.395 473.851 200.42L457.859 200.702C456.232 200.731 454.897 199.419 454.896 197.791Z" fill="#848CA2" stroke="#B5BAC7"/>
<path d="M454.896 164.314C454.896 162.686 456.232 161.374 457.859 161.403L473.851 161.685C475.285 161.71 476.435 162.879 476.435 164.314C476.435 165.748 475.285 166.917 473.851 166.943L457.859 167.225C456.232 167.254 454.897 165.942 454.896 164.314Z" fill="#848CA2" stroke="#B5BAC7"/>
<rect x="480.863" y="188.515" width="14.9235" height="3.89953" rx="1.94977" transform="rotate(-90 480.863 188.515)" fill="#848CA2" stroke="#B5BAC7"/>
<line opacity="0.35" x1="0.918661" y1="-0.918661" x2="47.5842" y2="-0.918661" transform="matrix(-0.707107 0.707107 -0.707107 -0.707106 484.039 164.517)" stroke="#E11F2A" stroke-width="1.83732" stroke-linecap="round"/>
<line opacity="0.35" x1="0.918661" y1="-0.918661" x2="47.5842" y2="-0.918661" transform="matrix(0.707107 0.707106 0.707107 -0.707107 449.742 164.517)" stroke="#E11F2A" stroke-width="1.83732" stroke-linecap="round"/>
<path d="M462.672 185.052V177.948L461.128 178.377L460.81 177.152L463.113 176.417H464.166V185.052H462.672ZM469.206 185.175C468.259 185.175 467.475 184.946 466.855 184.489C466.242 184.032 465.936 183.435 465.936 182.701C465.936 181.737 466.45 181.039 467.479 180.606C466.646 180.165 466.23 179.52 466.23 178.671C466.23 178.009 466.512 177.458 467.075 177.017C467.638 176.576 468.349 176.356 469.206 176.356C470.064 176.356 470.774 176.576 471.338 177.017C471.901 177.458 472.183 178.017 472.183 178.695C472.183 179.528 471.766 180.165 470.933 180.606C471.962 181.08 472.477 181.774 472.477 182.688C472.477 183.44 472.171 184.044 471.558 184.501C470.946 184.95 470.162 185.175 469.206 185.175ZM468.104 179.749C468.398 179.985 468.765 180.104 469.206 180.104C469.647 180.104 470.011 179.985 470.296 179.749C470.59 179.504 470.737 179.193 470.737 178.818C470.737 178.483 470.594 178.201 470.309 177.972C470.023 177.736 469.655 177.617 469.206 177.617C468.757 177.617 468.39 177.736 468.104 177.972C467.818 178.201 467.675 178.487 467.675 178.83C467.675 179.206 467.818 179.512 468.104 179.749ZM467.896 183.546C468.222 183.791 468.659 183.913 469.206 183.913C469.753 183.913 470.19 183.791 470.517 183.546C470.844 183.293 471.007 182.978 471.007 182.603C471.007 182.219 470.835 181.908 470.492 181.672C470.149 181.427 469.721 181.304 469.206 181.304C468.692 181.304 468.263 181.427 467.92 181.672C467.577 181.908 467.406 182.227 467.406 182.627C467.406 182.986 467.569 183.293 467.896 183.546Z" fill="white"/>
<path d="M450.242 250.025L450.242 224.921C450.242 222.386 452.38 220.375 454.911 220.531L478.184 221.958C480.504 222.101 482.314 224.025 482.314 226.35L482.314 248.596C482.314 250.921 480.504 252.845 478.184 252.988L454.911 254.416C452.38 254.571 450.242 252.56 450.242 250.025Z" fill="#848CA2" stroke="#B5BAC7"/>
<path d="M454.896 254.212C454.896 252.584 456.232 251.272 457.859 251.301L473.851 251.583C475.285 251.609 476.435 252.778 476.435 254.212C476.435 255.646 475.285 256.816 473.851 256.841L457.859 257.123C456.232 257.152 454.897 255.84 454.896 254.212Z" fill="#848CA2" stroke="#B5BAC7"/>
<path d="M454.896 220.735C454.896 219.107 456.232 217.795 457.859 217.824L473.851 218.106C475.285 218.131 476.435 219.3 476.435 220.735C476.435 222.169 475.285 223.338 473.851 223.364L457.859 223.646C456.232 223.674 454.897 222.362 454.896 220.735Z" fill="#848CA2" stroke="#B5BAC7"/>
<rect x="480.863" y="244.936" width="14.9235" height="3.89953" rx="1.94977" transform="rotate(-90 480.863 244.936)" fill="#848CA2" stroke="#B5BAC7"/>
<line opacity="0.35" x1="0.918661" y1="-0.918661" x2="47.5842" y2="-0.918661" transform="matrix(-0.707107 0.707107 -0.707107 -0.707106 484.039 220.938)" stroke="#E11F2A" stroke-width="1.83732" stroke-linecap="round"/>
<line opacity="0.35" x1="0.918661" y1="-0.918661" x2="47.5842" y2="-0.918661" transform="matrix(0.707107 0.707106 0.707107 -0.707107 449.742 220.938)" stroke="#E11F2A" stroke-width="1.83732" stroke-linecap="round"/>
<path d="M462.797 241.473V234.369L461.254 234.798L460.936 233.573L463.238 232.838H464.292V241.473H462.797ZM466.772 241.473L470.618 234.222H466.306V232.899H472.333V234.038L468.462 241.473H466.772Z" fill="white"/>
<path d="M532.895 56.761L532.895 31.6575C532.895 29.1219 535.033 27.1116 537.563 27.2668L560.836 28.6946C563.157 28.837 564.967 30.7611 564.967 33.0862L564.967 55.3323C564.967 57.6573 563.157 59.5814 560.836 59.7239L537.563 61.1516C535.033 61.3069 532.895 59.2965 532.895 56.761Z" fill="#F1F3F9" stroke="#B5BAC7"/>
<path d="M537.549 60.9493C537.549 59.3215 538.884 58.0096 540.512 58.0382L556.503 58.3204C557.937 58.3457 559.087 59.5151 559.087 60.9493C559.087 62.3835 557.937 63.553 556.503 63.5782L540.512 63.8605C538.884 63.8891 537.549 62.5772 537.549 60.9493Z" fill="#F1F3F9" stroke="#B5BAC7"/>
<path d="M537.549 27.4719C537.549 25.844 538.884 24.5321 540.512 24.5607L556.503 24.843C557.937 24.8682 559.087 26.0376 559.087 27.4719C559.087 28.9061 557.937 30.0755 556.503 30.1008L540.512 30.383C538.884 30.4116 537.549 29.0997 537.549 27.4719Z" fill="#F1F3F9" stroke="#B5BAC7"/>
<rect x="563.516" y="51.6714" width="14.9235" height="3.89953" rx="1.94977" transform="rotate(-90 563.516 51.6714)" fill="#F1F3F9" stroke="#B5BAC7"/>
<path d="M541.725 48.2091V47.021L544.677 44.51C545.853 43.5178 546.281 42.9666 546.281 42.1949C546.281 41.3498 545.681 40.8598 544.897 40.8598C544.113 40.8598 543.574 41.2885 542.913 42.1459L541.847 41.313C542.668 40.1616 543.476 39.5124 545.008 39.5124C546.686 39.5124 547.837 40.5413 547.837 42.0969C547.837 43.4443 547.114 44.167 545.608 45.4164L543.844 46.8862H547.923V48.2091H541.725ZM553.444 48.2091V46.286H549.12L548.838 45.2081L553.603 39.5737H554.889V45.0489H556.114V46.286H554.889V48.2091H553.444ZM550.627 45.0489H553.444V41.656L550.627 45.0489Z" fill="#5F2167"/>
<path d="M532.895 113.182L532.895 88.0784C532.895 85.5429 535.033 83.5325 537.563 83.6878L560.836 85.1155C563.157 85.258 564.967 87.182 564.967 89.5071L564.967 111.753C564.967 114.078 563.157 116.002 560.836 116.145L537.563 117.573C535.033 117.728 532.895 115.717 532.895 113.182Z" fill="#F1F3F9" stroke="#B5BAC7"/>
<path d="M537.549 117.37C537.549 115.742 538.884 114.431 540.512 114.459L556.503 114.741C557.937 114.767 559.087 115.936 559.087 117.37C559.087 118.805 557.937 119.974 556.503 119.999L540.512 120.281C538.884 120.31 537.549 118.998 537.549 117.37Z" fill="#F1F3F9" stroke="#B5BAC7"/>
<path d="M537.549 83.8928C537.549 82.265 538.884 80.953 540.512 80.9817L556.503 81.2639C557.937 81.2892 559.087 82.4586 559.087 83.8928C559.087 85.327 557.937 86.4965 556.503 86.5217L540.512 86.804C538.884 86.8326 537.549 85.5206 537.549 83.8928Z" fill="#F1F3F9" stroke="#B5BAC7"/>
<rect x="563.516" y="108.092" width="14.9235" height="3.89953" rx="1.94977" transform="rotate(-90 563.516 108.092)" fill="#F1F3F9" stroke="#B5BAC7"/>
<path d="M541.988 104.63V103.442L544.94 100.931C546.116 99.9388 546.545 99.3876 546.545 98.6159C546.545 97.7707 545.944 97.2808 545.16 97.2808C544.377 97.2808 543.838 97.7095 543.176 98.5669L542.11 97.734C542.931 96.5826 543.74 95.9334 545.271 95.9334C546.949 95.9334 548.1 96.9623 548.1 98.5179C548.1 99.8653 547.377 100.588 545.871 101.837L544.107 103.307H548.186V104.63H541.988ZM552.709 104.777C551.215 104.777 550.149 104.152 549.426 103.27L550.48 102.291C551.092 103.013 551.778 103.417 552.734 103.417C553.579 103.417 554.216 102.903 554.216 102.095C554.216 101.249 553.444 100.772 552.244 100.772H551.546L551.301 99.8285L553.616 97.3665H549.904V96.0559H555.575V97.1828L553.187 99.6325C554.546 99.8285 555.71 100.527 555.71 102.07C555.71 103.65 554.485 104.777 552.709 104.777Z" fill="#5F2167"/>
<path d="M532.895 193.604L532.895 168.5C532.895 165.965 535.033 163.955 537.563 164.11L560.836 165.538C563.157 165.68 564.967 167.604 564.967 169.929L564.967 192.175C564.967 194.5 563.157 196.424 560.836 196.567L537.563 197.995C535.033 198.15 532.895 196.139 532.895 193.604Z" fill="#848CA2" stroke="#B5BAC7"/>
<path d="M537.549 197.791C537.549 196.163 538.884 194.852 540.512 194.88L556.503 195.162C557.937 195.188 559.087 196.357 559.087 197.791C559.087 199.226 557.937 200.395 556.503 200.42L540.512 200.702C538.884 200.731 537.549 199.419 537.549 197.791Z" fill="#848CA2" stroke="#B5BAC7"/>
<path d="M537.549 164.314C537.549 162.686 538.884 161.374 540.512 161.403L556.503 161.685C557.937 161.71 559.087 162.879 559.087 164.314C559.087 165.748 557.937 166.917 556.503 166.943L540.512 167.225C538.884 167.254 537.549 165.942 537.549 164.314Z" fill="#848CA2" stroke="#B5BAC7"/>
<rect x="563.516" y="188.515" width="14.9235" height="3.89953" rx="1.94977" transform="rotate(-90 563.516 188.515)" fill="#848CA2" stroke="#B5BAC7"/>
<line opacity="0.35" x1="0.918661" y1="-0.918661" x2="47.5842" y2="-0.918661" transform="matrix(-0.707107 0.707107 -0.707107 -0.707106 566.691 164.517)" stroke="#E11F2A" stroke-width="1.83732" stroke-linecap="round"/>
<line opacity="0.35" x1="0.918661" y1="-0.918661" x2="47.5842" y2="-0.918661" transform="matrix(0.707107 0.707106 0.707107 -0.707107 532.395 164.517)" stroke="#E11F2A" stroke-width="1.83732" stroke-linecap="round"/>
<path d="M542.018 185.052V183.864L544.97 181.353C546.146 180.361 546.574 179.81 546.574 179.038C546.574 178.193 545.974 177.703 545.19 177.703C544.406 177.703 543.867 178.132 543.206 178.989L542.14 178.156C542.961 177.005 543.769 176.356 545.301 176.356C546.979 176.356 548.13 177.385 548.13 178.94C548.13 180.288 547.407 181.01 545.901 182.26L544.137 183.729H548.216V185.052H542.018ZM549.53 185.052V183.864L552.482 181.353C553.658 180.361 554.086 179.81 554.086 179.038C554.086 178.193 553.486 177.703 552.702 177.703C551.918 177.703 551.379 178.132 550.718 178.989L549.652 178.156C550.473 177.005 551.281 176.356 552.813 176.356C554.491 176.356 555.642 177.385 555.642 178.94C555.642 180.288 554.919 181.01 553.413 182.26L551.649 183.729H555.728V185.052H549.53Z" fill="white"/>
<path d="M532.895 250.024L532.895 224.92C532.895 222.385 535.033 220.374 537.563 220.53L560.836 221.958C563.157 222.1 564.967 224.024 564.967 226.349L564.967 248.595C564.967 250.92 563.157 252.844 560.836 252.987L537.563 254.415C535.033 254.57 532.895 252.559 532.895 250.024Z" fill="#F1F3F9" stroke="#B5BAC7"/>
<path d="M537.549 254.212C537.549 252.584 538.884 251.272 540.512 251.301L556.503 251.583C557.937 251.609 559.087 252.778 559.087 254.212C559.087 255.646 557.937 256.816 556.503 256.841L540.512 257.123C538.884 257.152 537.549 255.84 537.549 254.212Z" fill="#F1F3F9" stroke="#B5BAC7"/>
<path d="M537.549 220.735C537.549 219.107 538.884 217.795 540.512 217.824L556.503 218.106C557.937 218.131 559.087 219.301 559.087 220.735C559.087 222.169 557.937 223.338 556.503 223.364L540.512 223.646C538.884 223.675 537.549 222.363 537.549 220.735Z" fill="#F1F3F9" stroke="#B5BAC7"/>
<rect x="563.516" y="244.934" width="14.9235" height="3.89953" rx="1.94977" transform="rotate(-90 563.516 244.934)" fill="#F1F3F9" stroke="#B5BAC7"/>
<path d="M543.846 241.472V240.284L546.798 237.773C547.974 236.781 548.402 236.23 548.402 235.458C548.402 234.613 547.802 234.123 547.018 234.123C546.234 234.123 545.695 234.551 545.034 235.409L543.968 234.576C544.789 233.425 545.597 232.775 547.128 232.775C548.806 232.775 549.958 233.804 549.958 235.36C549.958 236.707 549.235 237.43 547.729 238.679L545.965 240.149H550.044V241.472H543.846ZM552.938 241.472V234.368L551.394 234.796L551.076 233.572L553.379 232.837H554.432V241.472H552.938Z" fill="#5F2167"/>
<path d="M615.547 56.761L615.547 31.6575C615.547 29.1219 617.685 27.1116 620.216 27.2668L643.488 28.6946C645.809 28.837 647.619 30.7611 647.619 33.0862L647.619 55.3323C647.619 57.6573 645.809 59.5814 643.488 59.7239L620.216 61.1516C617.685 61.3069 615.547 59.2965 615.547 56.761Z" fill="#F1F3F9" stroke="#B5BAC7"/>
<path d="M620.201 60.9493C620.201 59.3215 621.536 58.0096 623.164 58.0382L639.155 58.3204C640.589 58.3457 641.739 59.5151 641.739 60.9493C641.739 62.3835 640.589 63.553 639.155 63.5782L623.164 63.8605C621.536 63.8891 620.201 62.5772 620.201 60.9493Z" fill="#F1F3F9" stroke="#B5BAC7"/>
<path d="M620.201 27.4719C620.201 25.844 621.536 24.5321 623.164 24.5607L639.155 24.843C640.589 24.8682 641.739 26.0376 641.739 27.4719C641.739 28.9061 640.589 30.0755 639.155 30.1008L623.164 30.383C621.536 30.4116 620.201 29.0997 620.201 27.4719Z" fill="#F1F3F9" stroke="#B5BAC7"/>
<rect x="646.168" y="51.6714" width="14.9235" height="3.89953" rx="1.94977" transform="rotate(-90 646.168 51.6714)" fill="#F1F3F9" stroke="#B5BAC7"/>
<path d="M624.569 48.2091V47.021L627.521 44.51C628.696 43.5178 629.125 42.9666 629.125 42.1949C629.125 41.3498 628.525 40.8598 627.741 40.8598C626.957 40.8598 626.418 41.2885 625.757 42.1459L624.691 41.313C625.512 40.1616 626.32 39.5124 627.851 39.5124C629.529 39.5124 630.681 40.5413 630.681 42.0969C630.681 43.4443 629.958 44.167 628.451 45.4164L626.688 46.8862H630.766V48.2091H624.569ZM635.339 48.3316C633.465 48.3316 632.068 47.3517 632.068 45.8573C632.068 44.8162 632.644 44.167 633.612 43.7628C632.889 43.3831 632.362 42.8074 632.362 41.8275C632.362 40.5168 633.624 39.5124 635.339 39.5124C637.054 39.5124 638.315 40.5046 638.315 41.852C638.315 42.8074 637.788 43.3831 637.066 43.7628C637.997 44.1915 638.609 44.8039 638.609 45.8451C638.609 47.3762 637.213 48.3316 635.339 48.3316ZM635.339 43.2606C636.221 43.2606 636.87 42.7339 636.87 41.9745C636.87 41.313 636.257 40.7741 635.339 40.7741C634.42 40.7741 633.808 41.313 633.808 41.9867C633.808 42.7339 634.457 43.2606 635.339 43.2606ZM635.339 47.07C636.466 47.07 637.139 46.4943 637.139 45.7593C637.139 44.9754 636.355 44.461 635.339 44.461C634.322 44.461 633.538 44.9754 633.538 45.7838C633.538 46.482 634.212 47.07 635.339 47.07Z" fill="#5F2167"/>
<path d="M615.547 113.183L615.547 88.0794C615.547 85.5438 617.685 83.5335 620.216 83.6888L643.488 85.1165C645.809 85.259 647.619 87.183 647.619 89.5081L647.619 111.754C647.619 114.079 645.809 116.003 643.488 116.146L620.216 117.574C617.685 117.729 615.547 115.718 615.547 113.183Z" fill="#848CA2" stroke="#B5BAC7"/>
<path d="M620.201 117.37C620.201 115.742 621.536 114.431 623.164 114.459L639.155 114.741C640.589 114.767 641.739 115.936 641.739 117.37C641.739 118.805 640.589 119.974 639.155 119.999L623.164 120.281C621.536 120.31 620.201 118.998 620.201 117.37Z" fill="#848CA2" stroke="#B5BAC7"/>
<path d="M620.201 83.8927C620.201 82.2649 621.536 80.9529 623.164 80.9816L639.155 81.2638C640.589 81.289 641.739 82.4585 641.739 83.8927C641.739 85.3269 640.589 86.4964 639.155 86.5216L623.164 86.8038C621.536 86.8325 620.201 85.5205 620.201 83.8927Z" fill="#848CA2" stroke="#B5BAC7"/>
<rect x="646.168" y="108.094" width="14.9235" height="3.89953" rx="1.94977" transform="rotate(-90 646.168 108.094)" fill="#848CA2" stroke="#B5BAC7"/>
<line opacity="0.35" x1="0.918661" y1="-0.918661" x2="47.5842" y2="-0.918661" transform="matrix(-0.707107 0.707107 -0.707107 -0.707106 649.344 84.0961)" stroke="#E11F2A" stroke-width="1.83732" stroke-linecap="round"/>
<line opacity="0.35" x1="0.918661" y1="-0.918661" x2="47.5842" y2="-0.918661" transform="matrix(0.707107 0.707106 0.707107 -0.707107 615.047 84.0961)" stroke="#E11F2A" stroke-width="1.83732" stroke-linecap="round"/>
<path d="M625.194 104.631V103.443L628.146 100.932C629.322 99.94 629.751 99.3888 629.751 98.6171C629.751 97.7719 629.151 97.282 628.367 97.282C627.583 97.282 627.044 97.7107 626.382 98.5681L625.317 97.7352C626.137 96.5838 626.946 95.9346 628.477 95.9346C630.155 95.9346 631.306 96.9635 631.306 98.5191C631.306 99.8665 630.584 100.589 629.077 101.839L627.313 103.308H631.392V104.631H625.194ZM633.404 104.631L637.25 97.38H632.939V96.0571H638.965V97.1963L635.095 104.631H633.404Z" fill="white"/>
<path d="M615.547 193.603L615.547 168.499C615.547 165.964 617.685 163.954 620.216 164.109L643.488 165.537C645.809 165.679 647.619 167.603 647.619 169.928L647.619 192.174C647.619 194.499 645.809 196.423 643.488 196.566L620.216 197.994C617.685 198.149 615.547 196.139 615.547 193.603Z" fill="#F1F3F9" stroke="#B5BAC7"/>
<path d="M620.201 197.791C620.201 196.163 621.536 194.852 623.164 194.88L639.155 195.162C640.589 195.188 641.739 196.357 641.739 197.791C641.739 199.226 640.589 200.395 639.155 200.42L623.164 200.702C621.536 200.731 620.201 199.419 620.201 197.791Z" fill="#F1F3F9" stroke="#B5BAC7"/>
<path d="M620.201 164.314C620.201 162.686 621.536 161.374 623.164 161.403L639.155 161.685C640.589 161.71 641.739 162.88 641.739 164.314C641.739 165.748 640.589 166.918 639.155 166.943L623.164 167.225C621.536 167.254 620.201 165.942 620.201 164.314Z" fill="#F1F3F9" stroke="#B5BAC7"/>
<rect x="646.168" y="188.513" width="14.9235" height="3.89953" rx="1.94977" transform="rotate(-90 646.168 188.513)" fill="#F1F3F9" stroke="#B5BAC7"/>
<path d="M624.407 185.051V183.863L627.359 181.352C628.535 180.36 628.964 179.809 628.964 179.037C628.964 178.192 628.363 177.702 627.58 177.702C626.796 177.702 626.257 178.131 625.595 178.988L624.53 178.155C625.35 177.004 626.159 176.354 627.69 176.354C629.368 176.354 630.519 177.383 630.519 178.939C630.519 180.286 629.797 181.009 628.29 182.258L626.526 183.728H630.605V185.051H624.407ZM635.447 185.198C634.393 185.198 633.634 184.867 633.07 184.304C632.409 183.642 632.017 182.748 632.017 180.997C632.017 178.375 633.266 176.33 635.692 176.33C636.806 176.33 637.566 176.685 638.313 177.285L637.505 178.449C636.904 177.984 636.39 177.702 635.643 177.702C634.369 177.702 633.658 178.853 633.585 180.421C634.038 179.98 634.626 179.564 635.63 179.564C637.296 179.564 638.631 180.544 638.631 182.283C638.631 183.985 637.247 185.198 635.447 185.198ZM635.41 183.9C636.476 183.9 637.125 183.226 637.125 182.32C637.125 181.462 636.439 180.825 635.373 180.825C634.308 180.825 633.634 181.511 633.634 182.356C633.634 183.226 634.332 183.9 635.41 183.9Z" fill="#5F2167"/>
<path d="M615.547 250.024L615.547 224.92C615.547 222.385 617.685 220.374 620.216 220.53L643.488 221.958C645.809 222.1 647.619 224.024 647.619 226.349L647.619 248.595C647.619 250.92 645.809 252.844 643.488 252.987L620.216 254.415C617.685 254.57 615.547 252.559 615.547 250.024Z" fill="#F1F3F9" stroke="#B5BAC7"/>
<path d="M620.201 254.212C620.201 252.584 621.536 251.272 623.164 251.301L639.155 251.583C640.589 251.609 641.739 252.778 641.739 254.212C641.739 255.646 640.589 256.816 639.155 256.841L623.164 257.123C621.536 257.152 620.201 255.84 620.201 254.212Z" fill="#F1F3F9" stroke="#B5BAC7"/>
<path d="M620.201 220.735C620.201 219.107 621.536 217.795 623.164 217.824L639.155 218.106C640.589 218.131 641.739 219.301 641.739 220.735C641.739 222.169 640.589 223.338 639.155 223.364L623.164 223.646C621.536 223.675 620.201 222.363 620.201 220.735Z" fill="#F1F3F9" stroke="#B5BAC7"/>
<rect x="646.168" y="244.934" width="14.9235" height="3.89953" rx="1.94977" transform="rotate(-90 646.168 244.934)" fill="#F1F3F9" stroke="#B5BAC7"/>
<path d="M624.616 241.472V240.284L627.568 237.773C628.744 236.781 629.173 236.23 629.173 235.458C629.173 234.613 628.573 234.123 627.789 234.123C627.005 234.123 626.466 234.551 625.805 235.409L624.739 234.576C625.56 233.425 626.368 232.775 627.899 232.775C629.577 232.775 630.729 233.804 630.729 235.36C630.729 236.707 630.006 237.43 628.499 238.679L626.735 240.149H630.814V241.472H624.616ZM635.252 241.619C633.941 241.619 632.912 241.092 632.104 240.308L633.035 239.218C633.721 239.855 634.443 240.247 635.24 240.247C636.268 240.247 636.942 239.659 636.942 238.741C636.942 237.871 636.207 237.32 635.166 237.32C634.554 237.32 634.027 237.491 633.586 237.699L632.68 237.099L632.925 232.898H638.045V234.233H634.223L634.088 236.242C634.492 236.095 634.872 235.997 635.448 235.997C637.114 235.997 638.424 236.879 638.424 238.716C638.424 240.468 637.15 241.619 635.252 241.619Z" fill="#5F2167"/>
<path d="M698.199 56.761L698.199 31.6575C698.199 29.1219 700.337 27.1116 702.868 27.2668L726.141 28.6946C728.461 28.837 730.271 30.7611 730.271 33.0862L730.271 55.3323C730.271 57.6573 728.461 59.5814 726.141 59.7239L702.868 61.1516C700.337 61.3069 698.199 59.2965 698.199 56.761Z" fill="#F1F3F9" stroke="#B5BAC7"/>
<path d="M702.854 60.9493C702.854 59.3215 704.189 58.0096 705.816 58.0382L721.808 58.3204C723.242 58.3457 724.392 59.5151 724.392 60.9493C724.392 62.3835 723.242 63.553 721.808 63.5782L705.816 63.8605C704.189 63.8891 702.854 62.5772 702.854 60.9493Z" fill="#F1F3F9" stroke="#B5BAC7"/>
<path d="M702.854 27.4719C702.854 25.844 704.189 24.5321 705.816 24.5607L721.808 24.843C723.242 24.8682 724.392 26.0376 724.392 27.4719C724.392 28.9061 723.242 30.0755 721.808 30.1008L705.816 30.383C704.189 30.4116 702.854 29.0997 702.854 27.4719Z" fill="#F1F3F9" stroke="#B5BAC7"/>
<rect x="728.82" y="51.6714" width="14.9235" height="3.89953" rx="1.94977" transform="rotate(-90 728.82 51.6714)" fill="#F1F3F9" stroke="#B5BAC7"/>
<path d="M710.502 48.3561C709.008 48.3561 707.942 47.7314 707.219 46.8495L708.273 45.8696C708.885 46.5923 709.571 46.9965 710.526 46.9965C711.372 46.9965 712.008 46.482 712.008 45.6736C712.008 44.8284 711.237 44.3507 710.036 44.3507H709.338L709.093 43.4076L711.408 40.9456H707.697V39.6349H713.368V40.7618L710.98 43.2116C712.339 43.4076 713.503 44.1058 713.503 45.6491C713.503 47.2292 712.278 48.3561 710.502 48.3561ZM714.864 48.2091V47.021L717.816 44.51C718.992 43.5178 719.421 42.9666 719.421 42.1949C719.421 41.3498 718.821 40.8598 718.037 40.8598C717.253 40.8598 716.714 41.2885 716.053 42.1459L714.987 41.313C715.808 40.1616 716.616 39.5124 718.147 39.5124C719.825 39.5124 720.977 40.5413 720.977 42.0969C720.977 43.4443 720.254 44.167 718.747 45.4164L716.984 46.8862H721.062V48.2091H714.864Z" fill="#5F2167"/>
<path d="M698.199 113.182L698.199 88.0784C698.199 85.5429 700.337 83.5325 702.868 83.6878L726.141 85.1155C728.461 85.258 730.271 87.182 730.271 89.5071L730.271 111.753C730.271 114.078 728.461 116.002 726.141 116.145L702.868 117.573C700.337 117.728 698.199 115.717 698.199 113.182Z" fill="#F1F3F9" stroke="#B5BAC7"/>
<path d="M702.854 117.37C702.854 115.742 704.189 114.431 705.816 114.459L721.808 114.741C723.242 114.767 724.392 115.936 724.392 117.37C724.392 118.805 723.242 119.974 721.808 119.999L705.816 120.281C704.189 120.31 702.854 118.998 702.854 117.37Z" fill="#F1F3F9" stroke="#B5BAC7"/>
<path d="M702.854 83.8928C702.854 82.265 704.189 80.953 705.816 80.9817L721.808 81.2639C723.242 81.2892 724.392 82.4586 724.392 83.8928C724.392 85.327 723.242 86.4965 721.808 86.5217L705.816 86.804C704.189 86.8326 702.854 85.5206 702.854 83.8928Z" fill="#F1F3F9" stroke="#B5BAC7"/>
<rect x="728.82" y="108.092" width="14.9235" height="3.89953" rx="1.94977" transform="rotate(-90 728.82 108.092)" fill="#F1F3F9" stroke="#B5BAC7"/>
<path d="M712.33 104.777C710.835 104.777 709.77 104.152 709.047 103.27L710.1 102.291C710.713 103.013 711.399 103.417 712.354 103.417C713.199 103.417 713.836 102.903 713.836 102.095C713.836 101.249 713.065 100.772 711.864 100.772H711.166L710.921 99.8285L713.236 97.3665H709.525V96.0559H715.196V97.1828L712.807 99.6325C714.167 99.8285 715.331 100.527 715.331 102.07C715.331 103.65 714.106 104.777 712.33 104.777ZM718.272 104.63V97.5258L716.729 97.9545L716.411 96.7296L718.713 95.9946H719.767V104.63H718.272Z" fill="#5F2167"/>
<path d="M698.199 193.603L698.199 168.499C698.199 165.964 700.337 163.954 702.868 164.109L726.141 165.537C728.461 165.679 730.271 167.603 730.271 169.928L730.271 192.174C730.271 194.499 728.461 196.423 726.141 196.566L702.868 197.994C700.337 198.149 698.199 196.139 698.199 193.603Z" fill="#F1F3F9" stroke="#B5BAC7"/>
<path d="M702.854 197.791C702.854 196.163 704.189 194.852 705.816 194.88L721.808 195.162C723.242 195.188 724.392 196.357 724.392 197.791C724.392 199.226 723.242 200.395 721.808 200.42L705.816 200.702C704.189 200.731 702.854 199.419 702.854 197.791Z" fill="#F1F3F9" stroke="#B5BAC7"/>
<path d="M702.854 164.314C702.854 162.686 704.189 161.374 705.816 161.403L721.808 161.685C723.242 161.71 724.392 162.88 724.392 164.314C724.392 165.748 723.242 166.918 721.808 166.943L705.816 167.225C704.189 167.254 702.854 165.942 702.854 164.314Z" fill="#F1F3F9" stroke="#B5BAC7"/>
<rect x="728.82" y="188.513" width="14.9235" height="3.89953" rx="1.94977" transform="rotate(-90 728.82 188.513)" fill="#F1F3F9" stroke="#B5BAC7"/>
<path d="M710.326 185.198C708.832 185.198 707.766 184.573 707.043 183.691L708.097 182.712C708.709 183.434 709.395 183.838 710.351 183.838C711.196 183.838 711.833 183.324 711.833 182.516C711.833 181.67 711.061 181.193 709.861 181.193H709.162L708.917 180.25L711.232 177.788H707.521V176.477H713.192V177.604L710.804 180.054C712.163 180.25 713.327 180.948 713.327 182.491C713.327 184.071 712.102 185.198 710.326 185.198ZM718.51 185.198C716.256 185.198 714.787 183.238 714.787 180.764C714.787 178.314 716.281 176.33 718.535 176.33C720.776 176.33 722.258 178.29 722.258 180.764C722.258 183.214 720.764 185.198 718.51 185.198ZM718.535 183.838C719.87 183.838 720.703 182.479 720.703 180.764C720.703 179.074 719.833 177.69 718.51 177.69C717.187 177.69 716.342 179.037 716.342 180.764C716.342 182.454 717.2 183.838 718.535 183.838Z" fill="#5F2167"/>
<path d="M698.199 250.025L698.199 224.921C698.199 222.386 700.337 220.375 702.868 220.531L726.141 221.958C728.461 222.101 730.271 224.025 730.271 226.35L730.271 248.596C730.271 250.921 728.461 252.845 726.141 252.988L702.868 254.416C700.337 254.571 698.199 252.56 698.199 250.025Z" fill="#848CA2" stroke="#B5BAC7"/>
<path d="M702.854 254.212C702.854 252.584 704.189 251.272 705.816 251.301L721.808 251.583C723.242 251.609 724.392 252.778 724.392 254.212C724.392 255.646 723.242 256.816 721.808 256.841L705.816 257.123C704.189 257.152 702.854 255.84 702.854 254.212Z" fill="#848CA2" stroke="#B5BAC7"/>
<path d="M702.854 220.735C702.854 219.107 704.189 217.795 705.816 217.824L721.808 218.106C723.242 218.131 724.392 219.3 724.392 220.735C724.392 222.169 723.242 223.338 721.808 223.364L705.816 223.646C704.189 223.674 702.854 222.362 702.854 220.735Z" fill="#848CA2" stroke="#B5BAC7"/>
<rect x="728.82" y="244.936" width="14.9235" height="3.89953" rx="1.94977" transform="rotate(-90 728.82 244.936)" fill="#848CA2" stroke="#B5BAC7"/>
<line opacity="0.35" x1="0.918661" y1="-0.918661" x2="47.5842" y2="-0.918661" transform="matrix(-0.707107 0.707107 -0.707107 -0.707106 731.996 220.938)" stroke="#E11F2A" stroke-width="1.83732" stroke-linecap="round"/>
<line opacity="0.35" x1="0.918661" y1="-0.918661" x2="47.5842" y2="-0.918661" transform="matrix(0.707107 0.707106 0.707107 -0.707107 697.699 220.938)" stroke="#E11F2A" stroke-width="1.83732" stroke-linecap="round"/>
<path d="M707.059 241.473V240.285L710.011 237.774C711.187 236.782 711.616 236.231 711.616 235.459C711.616 234.614 711.016 234.124 710.232 234.124C709.448 234.124 708.909 234.553 708.248 235.41L707.182 234.577C708.003 233.426 708.811 232.777 710.342 232.777C712.02 232.777 713.172 233.806 713.172 235.361C713.172 236.708 712.449 237.431 710.942 238.681L709.178 240.15H713.257V241.473H707.059ZM717.634 241.62C716.445 241.62 715.613 241.192 714.89 240.591L715.711 239.44C716.36 239.991 716.935 240.248 717.67 240.248C718.932 240.248 719.691 239.134 719.74 237.554C719.312 238.068 718.65 238.46 717.732 238.46C715.907 238.46 714.694 237.394 714.694 235.716C714.694 234.038 715.992 232.752 717.891 232.752C718.969 232.752 719.667 233.058 720.267 233.659C720.904 234.295 721.308 235.239 721.308 236.953C721.308 239.709 719.936 241.62 717.634 241.62ZM717.952 237.198C719.042 237.198 719.691 236.488 719.691 235.631C719.691 234.736 718.993 234.05 717.903 234.05C716.837 234.05 716.201 234.761 716.201 235.667C716.201 236.561 716.886 237.198 717.952 237.198Z" fill="white"/>
<path d="M780.852 56.762L780.852 31.6584C780.852 29.1229 782.99 27.1125 785.521 27.2678L808.793 28.6956C811.114 28.838 812.924 30.7621 812.924 33.0872L812.924 55.3333C812.924 57.6583 811.114 59.5824 808.793 59.7249L785.521 61.1526C782.99 61.3079 780.852 59.2975 780.852 56.762Z" fill="#848CA2" stroke="#B5BAC7"/>
<path d="M785.506 60.9493C785.506 59.3215 786.841 58.0096 788.469 58.0382L804.46 58.3204C805.894 58.3457 807.044 59.5151 807.044 60.9493C807.044 62.3835 805.894 63.553 804.46 63.5782L788.469 63.8605C786.841 63.8891 785.506 62.5772 785.506 60.9493Z" fill="#848CA2" stroke="#B5BAC7"/>
<path d="M785.506 27.4717C785.506 25.8439 786.841 24.532 788.469 24.5606L804.46 24.8428C805.894 24.8681 807.044 26.0375 807.044 27.4717C807.044 28.9059 805.894 30.0754 804.46 30.1006L788.469 30.3829C786.841 30.4115 785.506 29.0996 785.506 27.4717Z" fill="#848CA2" stroke="#B5BAC7"/>
<rect x="811.473" y="51.6732" width="14.9235" height="3.89953" rx="1.94977" transform="rotate(-90 811.473 51.6732)" fill="#848CA2" stroke="#B5BAC7"/>
<line opacity="0.35" x1="0.918661" y1="-0.918661" x2="47.5842" y2="-0.918661" transform="matrix(-0.707107 0.707107 -0.707107 -0.707106 814.648 27.6751)" stroke="#E11F2A" stroke-width="1.83732" stroke-linecap="round"/>
<line opacity="0.35" x1="0.918661" y1="-0.918661" x2="47.5842" y2="-0.918661" transform="matrix(0.707107 0.707106 0.707107 -0.707107 780.352 27.6751)" stroke="#E11F2A" stroke-width="1.83732" stroke-linecap="round"/>
<path d="M792.891 48.3573C791.397 48.3573 790.331 47.7326 789.608 46.8507L790.662 45.8708C791.274 46.5935 791.96 46.9977 792.916 46.9977C793.761 46.9977 794.398 46.4832 794.398 45.6748C794.398 44.8297 793.626 44.3519 792.426 44.3519H791.727L791.482 43.4088L793.797 40.9468H790.086V39.6362H795.757V40.763L793.369 43.2128C794.728 43.4088 795.892 44.107 795.892 45.6503C795.892 47.2304 794.667 48.3573 792.891 48.3573ZM800.781 48.3573C799.728 48.3573 798.968 48.0266 798.405 47.4631C797.744 46.8017 797.352 45.9075 797.352 44.156C797.352 41.5347 798.601 39.4892 801.026 39.4892C802.141 39.4892 802.9 39.8444 803.648 40.4446L802.839 41.6082C802.239 41.1428 801.724 40.861 800.977 40.861C799.703 40.861 798.993 42.0124 798.919 43.5803C799.373 43.1393 799.961 42.7229 800.965 42.7229C802.631 42.7229 803.966 43.7028 803.966 45.4421C803.966 47.1447 802.582 48.3573 800.781 48.3573ZM800.745 47.0589C801.81 47.0589 802.459 46.3853 802.459 45.4788C802.459 44.6214 801.773 43.9845 800.708 43.9845C799.642 43.9845 798.968 44.6704 798.968 45.5156C798.968 46.3853 799.667 47.0589 800.745 47.0589Z" fill="white"/>
<path d="M780.852 113.182L780.852 88.0784C780.852 85.5429 782.99 83.5325 785.521 83.6878L808.793 85.1155C811.114 85.258 812.924 87.182 812.924 89.5071L812.924 111.753C812.924 114.078 811.114 116.002 808.793 116.145L785.521 117.573C782.99 117.728 780.852 115.717 780.852 113.182Z" fill="#F1F3F9" stroke="#B5BAC7"/>
<path d="M785.506 117.37C785.506 115.742 786.841 114.431 788.469 114.459L804.46 114.741C805.894 114.767 807.044 115.936 807.044 117.37C807.044 118.805 805.894 119.974 804.46 119.999L788.469 120.281C786.841 120.31 785.506 118.998 785.506 117.37Z" fill="#F1F3F9" stroke="#B5BAC7"/>
<path d="M785.506 83.8928C785.506 82.265 786.841 80.953 788.469 80.9817L804.46 81.2639C805.894 81.2892 807.044 82.4586 807.044 83.8928C807.044 85.327 805.894 86.4965 804.46 86.5217L788.469 86.804C786.841 86.8326 785.506 85.5206 785.506 83.8928Z" fill="#F1F3F9" stroke="#B5BAC7"/>
<rect x="811.473" y="108.092" width="14.9235" height="3.89953" rx="1.94977" transform="rotate(-90 811.473 108.092)" fill="#F1F3F9" stroke="#B5BAC7"/>
<path d="M793.1 104.777C791.606 104.777 790.54 104.152 789.818 103.27L790.871 102.291C791.484 103.013 792.169 103.417 793.125 103.417C793.97 103.417 794.607 102.903 794.607 102.095C794.607 101.249 793.835 100.772 792.635 100.772H791.937L791.692 99.8285L794.007 97.3665H790.295V96.0559H795.967V97.1828L793.578 99.6325C794.938 99.8285 796.101 100.527 796.101 102.07C796.101 103.65 794.876 104.777 793.1 104.777ZM800.586 104.777C799.276 104.777 798.247 104.25 797.438 103.466L798.369 102.376C799.055 103.013 799.778 103.405 800.574 103.405C801.603 103.405 802.277 102.817 802.277 101.899C802.277 101.029 801.542 100.478 800.501 100.478C799.888 100.478 799.362 100.649 798.921 100.857L798.014 100.257L798.259 96.0559H803.379V97.391H799.558L799.423 99.3998C799.827 99.2528 800.207 99.1548 800.782 99.1548C802.448 99.1548 803.759 100.037 803.759 101.874C803.759 103.626 802.485 104.777 800.586 104.777Z" fill="#5F2167"/>
<path d="M780.852 193.603L780.852 168.499C780.852 165.964 782.99 163.954 785.521 164.109L808.793 165.537C811.114 165.679 812.924 167.603 812.924 169.928L812.924 192.174C812.924 194.499 811.114 196.423 808.793 196.566L785.521 197.994C782.99 198.149 780.852 196.139 780.852 193.603Z" fill="#F1F3F9" stroke="#B5BAC7"/>
<path d="M785.506 197.791C785.506 196.163 786.841 194.852 788.469 194.88L804.46 195.162C805.894 195.188 807.044 196.357 807.044 197.791C807.044 199.226 805.894 200.395 804.46 200.42L788.469 200.702C786.841 200.731 785.506 199.419 785.506 197.791Z" fill="#F1F3F9" stroke="#B5BAC7"/>
<path d="M785.506 164.314C785.506 162.686 786.841 161.374 788.469 161.403L804.46 161.685C805.894 161.71 807.044 162.88 807.044 164.314C807.044 165.748 805.894 166.918 804.46 166.943L788.469 167.225C786.841 167.254 785.506 165.942 785.506 164.314Z" fill="#F1F3F9" stroke="#B5BAC7"/>
<rect x="811.473" y="188.513" width="14.9235" height="3.89953" rx="1.94977" transform="rotate(-90 811.473 188.513)" fill="#F1F3F9" stroke="#B5BAC7"/>
<path d="M792.742 185.198C791.247 185.198 790.182 184.573 789.459 183.691L790.512 182.712C791.125 183.434 791.811 183.838 792.766 183.838C793.611 183.838 794.248 183.324 794.248 182.516C794.248 181.67 793.476 181.193 792.276 181.193H791.578L791.333 180.25L793.648 177.788H789.937V176.477H795.608V177.604L793.219 180.054C794.579 180.25 795.743 180.948 795.743 182.491C795.743 184.071 794.518 185.198 792.742 185.198ZM801.55 185.051V183.128H797.227L796.945 182.05L801.71 176.416H802.996V181.891H804.221V183.128H802.996V185.051H801.55ZM798.733 181.891H801.55V178.498L798.733 181.891Z" fill="#5F2167"/>
<path d="M780.852 250.024L780.852 224.92C780.852 222.385 782.99 220.374 785.521 220.53L808.793 221.958C811.114 222.1 812.924 224.024 812.924 226.349L812.924 248.595C812.924 250.92 811.114 252.844 808.793 252.987L785.521 254.415C782.99 254.57 780.852 252.559 780.852 250.024Z" fill="#F1F3F9" stroke="#B5BAC7"/>
<path d="M785.506 254.212C785.506 252.584 786.841 251.272 788.469 251.301L804.46 251.583C805.894 251.609 807.044 252.778 807.044 254.212C807.044 255.646 805.894 256.816 804.46 256.841L788.469 257.123C786.841 257.152 785.506 255.84 785.506 254.212Z" fill="#F1F3F9" stroke="#B5BAC7"/>
<path d="M785.506 220.735C785.506 219.107 786.841 217.795 788.469 217.824L804.46 218.106C805.894 218.131 807.044 219.301 807.044 220.735C807.044 222.169 805.894 223.338 804.46 223.364L788.469 223.646C786.841 223.675 785.506 222.363 785.506 220.735Z" fill="#F1F3F9" stroke="#B5BAC7"/>
<rect x="811.473" y="244.934" width="14.9235" height="3.89953" rx="1.94977" transform="rotate(-90 811.473 244.934)" fill="#F1F3F9" stroke="#B5BAC7"/>
<path d="M793.124 241.619C791.63 241.619 790.564 240.994 789.842 240.112L790.895 239.133C791.507 239.855 792.193 240.259 793.149 240.259C793.994 240.259 794.631 239.745 794.631 238.937C794.631 238.091 793.859 237.614 792.659 237.614H791.961L791.716 236.671L794.031 234.208H790.319V232.898H795.991V234.025L793.602 236.475C794.962 236.671 796.125 237.369 796.125 238.912C796.125 240.492 794.9 241.619 793.124 241.619ZM800.696 241.619C799.202 241.619 798.136 240.994 797.413 240.112L798.467 239.133C799.079 239.855 799.765 240.259 800.721 240.259C801.566 240.259 802.203 239.745 802.203 238.937C802.203 238.091 801.431 237.614 800.231 237.614H799.532L799.287 236.671L801.603 234.208H797.891V232.898H803.562V234.025L801.174 236.475C802.533 236.671 803.697 237.369 803.697 238.912C803.697 240.492 802.472 241.619 800.696 241.619Z" fill="#5F2167"/>
<path d="M863.004 24H911.999C920.836 24 927.999 31.1634 927.999 40V241C927.999 249.837 920.836 257 911.999 257H863.004V24Z" fill="black" fill-opacity="0.1"/>
<rect x="871.504" y="40.5" width="47.9953" height="47.9953" rx="3.5" fill="#F1F3F9"/>
<rect x="871.504" y="40.5" width="47.9953" height="47.9953" rx="3.5" stroke="#B5BAC7"/>
<path fill-rule="evenodd" clip-rule="evenodd" d="M892.303 53.6977C892.303 55.4609 893.74 56.8977 895.503 56.8977C897.274 56.8977 898.703 55.4609 898.703 53.6977C898.703 51.9344 897.266 50.4976 895.503 50.4976C893.74 50.4976 892.303 51.9344 892.303 53.6977ZM893.691 53.6977C893.691 52.7018 894.507 51.8854 895.503 51.8854C896.507 51.8854 897.315 52.6936 897.315 53.6977C897.315 54.6935 896.499 55.5099 895.503 55.5099C894.507 55.5099 893.691 54.6935 893.691 53.6977Z" fill="#5F2167"/>
<path d="M893.07 68.4568H894.458V78.4976H893.07V68.4568Z" fill="#5F2167"/>
<path d="M897.944 68.4568H896.556V78.4976H897.944V68.4568Z" fill="#5F2167"/>
<path d="M899.364 59.4937H891.658L891.642 68.9142H890.254L890.262 58.8081C890.262 58.6203 890.336 58.4407 890.466 58.3101C890.597 58.1795 890.768 58.106 890.956 58.106H900.058C900.442 58.106 900.752 58.4162 900.752 58.7999V68.9142H899.364V59.4937Z" fill="#5F2167"/>
<rect x="871.504" y="192.505" width="47.9953" height="47.9953" rx="3.5" fill="#F1F3F9"/>
<rect x="871.504" y="192.505" width="47.9953" height="47.9953" rx="3.5" stroke="#B5BAC7"/>
<path fill-rule="evenodd" clip-rule="evenodd" d="M892.294 205.705C892.294 207.47 893.732 208.908 895.497 208.908C897.262 208.908 898.7 207.47 898.7 205.705C898.7 203.94 897.262 202.502 895.497 202.502C893.732 202.502 892.294 203.94 892.294 205.705ZM893.683 205.705C893.683 204.708 894.5 203.891 895.497 203.891C896.494 203.891 897.311 204.708 897.311 205.705C897.311 206.702 896.494 207.519 895.497 207.519C894.492 207.519 893.683 206.702 893.683 205.705Z" fill="#5F2167"/>
<path d="M893.054 220.461H894.443V230.502H893.054V220.461Z" fill="#5F2167"/>
<path d="M897.932 220.461H896.543V230.502H897.932V220.461Z" fill="#5F2167"/>
<path d="M897.499 210.387C897.777 210.387 898.03 210.55 898.136 210.812L902.172 220.477H900.669L897.033 211.776H893.969L890.333 220.477H888.83L892.866 210.812C892.972 210.559 893.226 210.387 893.503 210.387H897.499Z" fill="#5F2167"/>
</svg>
