<svg width="48" height="48" viewBox="0 0 48 48" fill="none" xmlns="http://www.w3.org/2000/svg">
<path fill-rule="evenodd" clip-rule="evenodd" d="M23.9934 17.1145C18.9648 17.1145 14.8799 21.1995 14.8799 26.2282C14.8799 31.2568 18.9648 35.3418 23.9934 35.3418C29.0221 35.3418 33.107 31.2568 33.107 26.2282C33.107 21.1995 29.0221 17.1145 23.9934 17.1145ZM23.9934 32.8337C20.3609 32.8337 17.4007 29.8736 17.4007 26.2411C17.4007 22.6086 20.3609 19.6482 23.9934 19.6482C27.6259 19.6482 30.5863 22.6086 30.5863 26.2411C30.5863 29.8736 27.6389 32.8337 23.9934 32.8337Z" fill="#169A8E"/>
<path d="M38.9058 17.4635C38.9058 18.5558 38.0203 19.4414 36.928 19.4414C35.8356 19.4414 34.9501 18.5558 34.9501 17.4635C34.9501 16.3712 35.8356 15.4856 36.928 15.4856C38.0203 15.4856 38.9058 16.3712 38.9058 17.4635Z" fill="#169A8E"/>
<path fill-rule="evenodd" clip-rule="evenodd" d="M39 13.6045H9C7.06148 13.6045 5.49 15.176 5.49 17.1145V35.1145C5.49 37.0531 7.06148 38.6245 9 38.6245H39C40.9385 38.6245 42.51 37.0531 42.51 35.1145V17.1145C42.51 15.176 40.9385 13.6045 39 13.6045ZM9 11.1145C5.68629 11.1145 3 13.8008 3 17.1145V35.1145C3 38.4282 5.68629 41.1145 9 41.1145H39C42.3137 41.1145 45 38.4282 45 35.1145V17.1145C45 13.8008 42.3137 11.1145 39 11.1145H9Z" fill="#169A8E"/>
<path fill-rule="evenodd" clip-rule="evenodd" d="M16.7549 8.11512C16.7549 7.42752 17.3123 6.87012 17.9999 6.87012H29.9999C30.6875 6.87012 31.2449 7.42752 31.2449 8.11512C31.2449 8.80271 30.6875 9.36012 29.9999 9.36012H17.9999C17.3123 9.36012 16.7549 8.80271 16.7549 8.11512Z" fill="#169A8E"/>
</svg>
