<svg width="32" height="32" viewBox="0 0 32 32" fill="none" xmlns="http://www.w3.org/2000/svg">
<path d="M12.9313 12.9306H2.24625V4.45557C2.24625 3.23769 3.23846 2.24548 4.45634 2.24548H12.9313V12.9306ZM3.93066 11.2672L11.2594 11.2903V3.93077L3.93066 3.90766V11.2672Z" fill="#FAFBFD"/>
<path d="M19.0708 12.9315H29.7559V4.4565C29.7559 3.23863 28.7636 2.24641 27.5458 2.24641H19.0708V12.9315ZM28.0714 11.2681L20.7427 11.2912V3.9317L28.0714 3.90859V11.2681Z" fill="#FAFBFD"/>
<path d="M19.0708 19.0515H29.7558V27.5265C29.7558 28.7443 28.7636 29.7366 27.5458 29.7366H19.0708V19.0515ZM28.0714 20.7148L20.7427 20.6917V28.0513L28.0714 28.0744V20.7148Z" fill="#FAFBFD"/>
<path d="M11.853 20.1401V24.9661H7.0317V20.1401H11.853Z" fill="#FAFBFD"/>
<path d="M4.46385 25.5831H2.24609L2.24609 19.0515H4.46385L4.46385 25.5831Z" fill="#FAFBFD"/>
<path d="M2.24618 17.1112L2.24618 14.8935L29.7559 14.8935L29.7559 17.1112L2.24618 17.1112Z" fill="#FAFBFD"/>
<path d="M14.8922 2.24641H17.1099V12.9312H14.8922V2.24641Z" fill="#FAFBFD"/>
<path d="M14.8922 19.0515H17.1099V29.7363H14.8922V19.0515Z" fill="#FAFBFD"/>
<path d="M6.05811 29.7544V27.5367H12.9348L12.9348 29.7544L6.05811 29.7544Z" fill="#FAFBFD"/>
<path d="M22.4271 5.60385H26.3995V9.5857H22.4271V5.60385Z" fill="#FAFBFD"/>
<path d="M5.60249 5.59714H9.57492V9.579H5.60249V5.59714Z" fill="#FAFBFD"/>
<path d="M22.4271 22.4022H26.3995V26.3841H22.4271V22.4022Z" fill="#FAFBFD"/>
</svg>
