<svg width="32" height="32" viewBox="0 0 32 32" fill="none" xmlns="http://www.w3.org/2000/svg">
<path d="M12.9313 12.9306H2.24625V4.45563C2.24625 3.23776 3.23846 2.24554 4.45634 2.24554H12.9313V12.9306ZM3.93066 11.2673L11.2594 11.2904V3.93083L3.93066 3.90772V11.2673Z" fill="#FAFBFD"/>
<path d="M19.0708 12.9316H29.7559V4.45656C29.7559 3.23869 28.7636 2.24648 27.5458 2.24648H19.0708V12.9316ZM28.0714 11.2682L20.7427 11.2913V3.93176L28.0714 3.90865V11.2682Z" fill="#FAFBFD"/>
<path d="M19.0708 19.0515H29.7558V27.5265C29.7558 28.7444 28.7636 29.7366 27.5458 29.7366H19.0708V19.0515ZM28.0714 20.7149L20.7427 20.6918V28.0513L28.0714 28.0744V20.7149Z" fill="#FAFBFD"/>
<path d="M11.853 20.1401V24.9662H7.0317V20.1401H11.853Z" fill="#FAFBFD"/>
<path d="M4.46385 25.5831H2.24609L2.24609 19.0515H4.46385L4.46385 25.5831Z" fill="#FAFBFD"/>
<path d="M2.24618 17.1113L2.24618 14.8935L29.7559 14.8935L29.7559 17.1113L2.24618 17.1113Z" fill="#FAFBFD"/>
<path d="M14.8922 2.24648H17.1099V12.9313H14.8922V2.24648Z" fill="#FAFBFD"/>
<path d="M14.8922 19.0515H17.1099V29.7363H14.8922V19.0515Z" fill="#FAFBFD"/>
<path d="M6.05811 29.7545V27.5367H12.9348L12.9348 29.7545L6.05811 29.7545Z" fill="#FAFBFD"/>
<path d="M22.4271 5.60391H26.3995V9.58577H22.4271V5.60391Z" fill="#FAFBFD"/>
<path d="M5.60249 5.59721H9.57492V9.57906H5.60249V5.59721Z" fill="#FAFBFD"/>
<path d="M22.4271 22.4023H26.3995V26.3841H22.4271V22.4023Z" fill="#FAFBFD"/>
</svg>
