<svg width="170" height="71" viewBox="0 0 170 71" fill="none" xmlns="http://www.w3.org/2000/svg">
<path d="M155.836 15.3833C154.719 15.3833 153.815 16.2649 153.815 17.3526C153.815 18.4403 154.72 19.3205 155.836 19.3205C156.952 19.3205 157.857 18.439 157.857 17.3526C157.857 16.2663 156.952 15.3833 155.836 15.3833ZM155.836 18.9292C154.943 18.9292 154.22 18.2231 154.22 17.3526C154.22 16.4822 154.943 15.7775 155.836 15.7775C156.729 15.7775 157.451 16.4836 157.451 17.3526C157.451 18.2217 156.728 18.9292 155.836 18.9292Z" fill="#FAFBFD"/>
<path d="M156.711 16.8596C156.711 16.407 156.435 16.2064 155.885 16.2064H154.993V18.4974H155.348V17.5044H155.753L156.372 18.4974H156.767L156.104 17.4891C156.448 17.4473 156.712 17.2691 156.712 16.8596H156.711ZM155.348 17.2106V16.5017H155.831C156.075 16.5017 156.338 16.5546 156.338 16.8387C156.338 17.1897 156.068 17.2106 155.768 17.2106H155.346H155.348Z" fill="#FAFBFD"/>
<path d="M44.0985 15.3833L12.1428 54.7624H37.5945L44.1028 15.3833H44.0985Z" fill="#FAFBFD"/>
<path d="M64.3009 15.3833H47.4742L40.9673 54.7624H57.6039L64.3009 15.3833Z" fill="#FAFBFD"/>
<path d="M89.5682 15.3833L83.0613 54.7582C94.1458 54.6524 104.573 45.8796 106.414 35.0722C108.261 24.202 100.72 15.3903 89.5682 15.3833Z" fill="#FAFBFD"/>
<path d="M69.3515 15.3833L62.656 54.7624H79.4899L79.4913 54.7596H79.69L86.1969 15.3833H69.3515Z" fill="#FAFBFD"/>
<path d="M133.334 15.3833C122.177 15.3833 111.63 24.1992 109.778 35.0722C107.936 45.9159 115.433 54.7081 126.539 54.7596V54.7721H126.845L133.357 15.3833H133.334Z" fill="#FAFBFD"/>
<path d="M136.731 15.3833L130.222 54.7554C141.302 54.644 151.716 45.8755 153.554 35.0708C155.403 24.2062 147.872 15.3987 136.731 15.3833Z" fill="#FAFBFD"/>
</svg>
