<svg width="88" height="88" viewBox="0 0 88 88" fill="none" xmlns="http://www.w3.org/2000/svg">
<rect width="88" height="88" rx="16" fill="#F1F3F9"/>
<rect x="20" y="20" width="48" height="48" rx="16" fill="#F1F3F9"/>
<path fill-rule="evenodd" clip-rule="evenodd" d="M33.9638 32.563C31.321 32.563 29.1823 30.4119 29.1823 27.7815C29.1823 25.1387 31.3333 23 33.9638 23C36.6064 23 38.7453 25.151 38.7453 27.7815C38.7453 30.4119 36.5942 32.563 33.9638 32.563ZM33.9638 25.0649C32.4642 25.0649 31.2596 26.2819 31.2596 27.7692C31.2596 29.2687 32.4765 30.4856 33.9638 30.4856C35.4633 30.4856 36.6679 29.2687 36.6679 27.7692C36.6679 26.2819 35.451 25.0649 33.9638 25.0649Z" fill="#5F2167"/>
<path d="M58.2644 46.9568H48.5048V48.9234H58.2644V46.9568Z" fill="#5F2167"/>
<path d="M50.3732 50.6323H56.3838V52.5989H50.3732V50.6323Z" fill="#5F2167"/>
<path fill-rule="evenodd" clip-rule="evenodd" d="M49.2547 34.6159H57.5025V36.5825H56.9492V41.782H60.4893C61.2636 41.782 61.8905 42.4088 61.8905 43.1955V60.6128C61.8905 61.3995 61.2636 62.0264 60.4893 62.0264H60.3909V63.8077C60.4032 64.4715 59.8501 65 59.174 65H57.5024C56.8264 65 56.2732 64.4592 56.2732 63.8077V62.0264H50.4101V63.8077C50.4224 64.4715 49.8692 65 49.1932 65H47.5215C46.8455 65 46.2924 64.4592 46.2924 63.8077V62.0264H46.2801C45.5057 62.0264 44.8665 61.3995 44.8665 60.6128V43.1955C44.8665 42.4211 45.4934 41.782 46.2801 41.782H49.8078V36.5825H49.2547V34.6159ZM51.4057 36.5825V41.782H55.3513V36.5825H51.4057ZM57.8711 63.3899V62.0264H58.793V63.3899H57.8711ZM48.8122 62.0264H47.8903V63.3899H48.8122V62.0264ZM46.9561 59.9367H59.8009V43.8839H46.9561V59.9367Z" fill="#5F2167"/>
<path d="M30.313 49.8569H32.3903V64.8773H30.313V49.8569Z" fill="#5F2167"/>
<path d="M37.6143 49.8569H35.537V64.8773H37.6143V49.8569Z" fill="#5F2167"/>
<path d="M39.7286 36.459H28.199L28.1867 50.5454H26.1094L26.1217 35.4266C26.1094 35.1562 26.22 34.8857 26.4167 34.6891C26.6133 34.4925 26.8715 34.3818 27.1541 34.3818H40.7733C41.3388 34.3818 41.8059 34.8366 41.8059 35.4143V50.5454H39.7286V36.459Z" fill="#5F2167"/>
</svg>
