<svg width="32" height="32" viewBox="0 0 32 32" fill="none" xmlns="http://www.w3.org/2000/svg">
<rect width="32" height="32" rx="8" fill="#5F2167"/>
<rect x="6.51953" y="6.51852" width="18.963" height="18.963" rx="8" fill="#5F2167"/>
<path fill-rule="evenodd" clip-rule="evenodd" d="M14.8022 21.7509H12.6528L9.50684 9.31869C9.458 9.13306 9.48242 8.93765 9.58013 8.76668C9.67783 8.59566 9.83901 8.4736 10.0295 8.42476L13.1999 7.72618C13.576 7.62844 13.9766 7.85802 14.0841 8.24885L15.1002 12.0201C15.149 12.2106 15.1246 12.406 15.0269 12.577C14.9292 12.748 14.768 12.87 14.5775 12.9189L14.5384 12.9336L15.7157 17.589H21.392C22.0173 17.589 22.5204 18.0921 22.5204 18.7125V21.7509H19.2182V24.2963H18.3877V21.7509H15.6326V24.2963H14.8022V21.7509ZM13.3025 20.9205H21.6851V18.7027C21.6851 18.5415 21.5483 18.4096 21.3871 18.4096H15.066L13.5467 12.3963L14.2697 12.1373L13.3025 8.54688L10.3373 9.20145L13.3025 20.9205Z" fill="#FAFAFA"/>
</svg>
