<svg width="32" height="32" viewBox="0 0 32 32" fill="none" xmlns="http://www.w3.org/2000/svg">
<rect width="32" height="32" rx="8" fill="#5F2167"/>
<rect x="6.51953" y="6.51852" width="18.963" height="18.963" rx="8" fill="#5F2167"/>
<path d="M21.7405 16.1477L21.1871 15.5514L23.1288 13.7482L22.0411 12.6603C21.2969 13.1469 20.2187 13.0467 19.5746 12.4027C19.2025 12.0306 18.9974 11.5392 18.9974 11.0097C18.9974 10.6232 19.1071 10.2511 19.317 9.93625L18.2102 8.82953L16.2447 10.6519L15.6913 10.0555L18.2293 7.7037L20.4334 9.9076L20.1471 10.1939C19.9277 10.4133 19.8084 10.7043 19.8084 11.0097C19.8084 11.3198 19.9277 11.6108 20.1471 11.8254C20.5956 12.2786 21.3303 12.2739 21.7835 11.8254L22.0697 11.5394L24.2977 13.7673L21.7405 16.1477Z" fill="#FAFAFA"/>
<path d="M14.6033 11.0139L15.1768 10.4404L21.4918 16.7554L20.9183 17.3289L14.6033 11.0139Z" fill="#FAFAFA"/>
<path d="M11.5503 22.0781L13.7687 24.2964L20.2139 17.6938L19.6319 17.1261L13.7639 23.1515L12.6714 22.059C13.1676 21.2957 13.0817 20.2605 12.4138 19.5925C11.7459 18.9199 10.7106 18.8387 9.94732 19.3349L8.84529 18.2328L14.7228 12.1979L14.1408 11.6302L7.70508 18.2377L9.91393 20.4465L10.2002 20.1602C10.6391 19.7261 11.3976 19.7261 11.8365 20.1602C12.056 20.3749 12.1752 20.6707 12.1752 20.976C12.1752 21.2813 12.056 21.5723 11.8365 21.7918L11.5503 22.0781Z" fill="#FAFAFA"/>
</svg>
