<svg width="32" height="32" viewBox="0 0 32 32" fill="none" xmlns="http://www.w3.org/2000/svg">
<rect width="32" height="32" rx="8" fill="#258910"/>
<rect x="6.51953" y="6.51852" width="18.963" height="18.963" rx="8" fill="#258910"/>
<path d="M22.1168 12.4521L22.8939 11.6749L22.9717 11.8013C23.7294 13.0738 24.1276 14.5213 24.1276 15.9978C24.1276 18.1931 23.2728 20.2573 21.7235 21.8067C20.1741 23.356 18.1099 24.2107 15.9145 24.2107C13.7144 24.2107 11.655 23.3608 10.1056 21.8114C6.9049 18.6059 6.9049 13.3944 10.1056 10.1936C11.655 8.6443 13.7192 7.78935 15.9145 7.78935C17.9204 7.78935 19.8487 8.52276 21.3495 9.85356L21.4466 9.94107L20.6938 10.6938L20.6063 10.621C19.3095 9.48934 17.6436 8.86272 15.9194 8.86272C14.0106 8.86272 12.2135 9.60597 10.8681 10.9514C8.08511 13.7392 8.08511 18.2708 10.8681 21.0587C13.6512 23.8466 18.1876 23.8417 20.9706 21.0587C22.316 19.7133 23.0591 17.9163 23.0591 16.0075C23.0591 14.7933 22.7483 13.5934 22.1605 12.5346L22.1168 12.4521Z" fill="#FAFAFA"/>
<path d="M11.9318 15.8325L12.7575 15.0117L14.948 17.212L23.472 8.67821L24.2977 9.50399L14.948 18.8633L11.9318 15.8325Z" fill="#FAFAFA"/>
</svg>
