<svg width="32" height="32" viewBox="0 0 32 32" fill="none" xmlns="http://www.w3.org/2000/svg">
<rect width="32" height="32" rx="8" fill="#258910"/>
<rect x="6.51855" y="6.51852" width="18.963" height="18.963" rx="8" fill="#258910"/>
<path fill-rule="evenodd" clip-rule="evenodd" d="M14.3928 16.3703C13.7197 16.3703 13.1735 16.9019 13.1735 17.5652C13.1735 18.2334 13.7051 18.7601 14.3928 18.7601C15.0756 18.7601 15.617 18.2285 15.617 17.5652C15.617 16.9019 15.0707 16.3703 14.3928 16.3703ZM14.3928 17.97C14.1684 17.97 13.988 17.7847 13.988 17.5652C13.988 17.3311 14.1684 17.1652 14.3928 17.1603C14.6269 17.1603 14.7976 17.3311 14.7976 17.5652C14.7976 17.7944 14.622 17.97 14.3928 17.97Z" fill="#FAFAFA"/>
<path d="M17.8556 16.3703H16.9338L14.1343 21.3353H15.0658L17.8556 16.3703Z" fill="#FAFAFA"/>
<path fill-rule="evenodd" clip-rule="evenodd" d="M17.6068 18.9455C16.9338 18.9455 16.3875 19.4771 16.3875 20.1404C16.3875 20.8037 16.924 21.3353 17.6068 21.3353C18.2897 21.3353 18.831 20.8037 18.831 20.1404C18.831 19.4771 18.2848 18.9455 17.6068 18.9455ZM17.6068 20.5452C17.3825 20.5452 17.2021 20.3598 17.2021 20.1404C17.2021 19.9063 17.3825 19.7355 17.6068 19.7355C17.8361 19.7355 18.0117 19.9063 18.0117 20.1404C18.0117 20.3696 17.8361 20.5452 17.6068 20.5452Z" fill="#FAFAFA"/>
<path fill-rule="evenodd" clip-rule="evenodd" d="M15.5877 7.7037H16.4168V8.87827C16.5975 8.92569 16.7707 9.01231 16.9241 9.13788L20.4746 12.0447C20.7087 12.269 20.8307 12.552 20.8307 12.8495V23.2233C20.8356 23.8183 20.3674 24.2963 19.787 24.2963H12.2127C11.6371 24.2963 11.1689 23.8183 11.1689 23.2233V12.8495C11.1689 12.552 11.2909 12.269 11.5006 12.0642L15.2707 9.11835C15.3699 9.04077 15.4766 8.97921 15.5877 8.93358V7.7037ZM15.5877 9.92914L12.042 12.6983C12.0352 12.7051 12.0278 12.7177 12.0211 12.7343C12.0151 12.749 12.0096 12.7667 12.0055 12.786C12.0009 12.8075 11.998 12.8309 11.998 12.8544V23.2282C11.998 23.3599 12.0956 23.4721 12.2127 23.4721H19.787C19.9041 23.4721 20.0016 23.3648 20.0016 23.2282V12.8544C20.0016 12.7812 19.9723 12.7177 19.9235 12.669L16.4168 9.80165V10.8979C17.108 11.0807 17.6166 11.7096 17.6166 12.4588C17.6166 13.3513 16.8899 14.0731 16.0022 14.0731C15.1146 14.0731 14.3879 13.3513 14.3879 12.4588C14.3879 11.7095 14.8965 11.0806 15.5877 10.8979V9.92914ZM16.0022 11.6735C15.5682 11.6735 15.2171 12.0247 15.2171 12.4588C15.2171 12.8928 15.5682 13.2439 16.0022 13.2439C16.4363 13.2439 16.7875 12.8928 16.7875 12.4588C16.7875 12.0247 16.4314 11.6735 16.0022 11.6735Z" fill="#FAFAFA"/>
</svg>
