<svg width="32" height="32" viewBox="0 0 32 32" fill="none" xmlns="http://www.w3.org/2000/svg">
<path d="M23.2674 15.2041C24.5169 13.9456 24.8765 12.2108 24.8765 10.6377V9.87359H22.1438V7.72559H20.6157V9.87359H17.8742V11.4019H23.3124C23.0517 14.1704 21.3079 15.4736 17.8742 15.4736V17.0018C19.5731 17.0018 20.8674 16.6961 21.8562 16.2017C22.6741 16.6961 23.4921 16.9571 24.2742 16.9751L25.0652 16.9931L25.1012 15.4648L24.3192 15.4468C23.9865 15.4468 23.6359 15.3569 23.2674 15.2041Z" fill="#1D1F24"/>
<path fill-rule="evenodd" clip-rule="evenodd" d="M12.7056 15.6272H9.43372L8.83149 17.317H7.21352L10.4854 8.10349L11.6 8.09427L11.7798 8.6429L14.9528 17.317H13.3259L12.7056 15.6272ZM12.1483 14.0989L11.0427 11.0876L9.97302 14.0989H12.1483Z" fill="#1D1F24"/>
<path fill-rule="evenodd" clip-rule="evenodd" d="M25.9641 3.67188H6.03594C3.80675 3.67188 2 5.47884 2 7.70804V18.4313C2 20.6605 3.80675 22.4675 6.03594 22.4675H10.2786L10.3146 27.2946C10.3146 27.708 10.5663 28.0856 10.9438 28.2474C11.0787 28.3014 11.2135 28.3282 11.3573 28.3282C11.618 28.3282 11.8786 28.2292 12.0764 28.0495L18.1618 22.3508L25.9191 22.4315C27.0157 22.4585 28.0315 22.0272 28.8045 21.2632C29.5775 20.4991 30 19.483 30 18.3954V7.70804C30 5.47884 28.1933 3.67188 25.9641 3.67188ZM28.4719 18.3954C28.4719 19.0695 28.2112 19.7081 27.7258 20.1755C27.2404 20.652 26.6472 20.9033 25.9371 20.9033L17.5685 20.8137L11.8337 26.1798L11.7888 20.9392H6.03594C4.65169 20.9392 3.5281 19.8156 3.5281 18.4313V7.70804C3.5281 6.32373 4.65169 5.20014 6.03594 5.20014H25.9641C27.3483 5.20014 28.4719 6.32373 28.4719 7.70804V18.3954Z" fill="#1D1F24"/>
</svg>
