<svg width="88" height="88" viewBox="0 0 88 88" fill="none" xmlns="http://www.w3.org/2000/svg">
<rect width="88" height="88" rx="16" fill="#F1F3F9"/>
<rect x="20" y="20" width="48" height="48" rx="16" fill="#F1F3F9"/>
<path fill-rule="evenodd" clip-rule="evenodd" d="M39.6438 28.9128C39.6438 29.7184 39.8056 30.4867 40.0983 31.1871L36.0214 31.2159V42.917H38.1376V33.3197L41.5908 33.2955C42.6403 34.246 44.0318 34.8256 45.5566 34.8256C47.1089 34.8256 48.523 34.2249 49.5788 33.2437L52.9631 33.2197V50.1241H55.0792V31.0912L51.0424 31.12C51.3177 30.4378 51.4694 29.6928 51.4694 28.9128C51.4694 25.6514 48.8179 23 45.5566 23C42.2952 23 39.6438 25.6514 39.6438 28.9128ZM41.76 28.9003C41.76 26.8091 43.4653 25.1038 45.5566 25.1038C47.6478 25.1038 49.3532 26.8091 49.3532 28.9003C49.3532 30.9916 47.6478 32.697 45.5566 32.697C43.4653 32.697 41.76 30.9916 41.76 28.9003Z" fill="#5F2167"/>
<path d="M35.038 64.9999H32.9219V44.9213H38.2869V47.0375H35.038V64.9999Z" fill="#5F2167"/>
<path d="M41.0006 49.2161H43.1168V65H41.0006V49.2161Z" fill="#5F2167"/>
<path d="M47.984 49.2161H50.1001V65H47.984V49.2161Z" fill="#5F2167"/>
</svg>
