<svg width="88" height="88" viewBox="0 0 88 88" fill="none" xmlns="http://www.w3.org/2000/svg">
<rect width="88" height="88" rx="16" fill="#F1F3F9"/>
<rect x="20" y="20" width="48" height="48" rx="16" fill="#F1F3F9"/>
<path fill-rule="evenodd" clip-rule="evenodd" d="M37.503 37.1251C36.2104 39.3378 35.125 42.1534 36.885 45.0017C38.6997 47.9521 39.502 50.3101 37.8108 52.89C37.5393 53.322 37.6503 53.8894 38.0824 54.1733C38.201 54.2462 38.3263 54.2923 38.4534 54.3115C38.4723 54.3143 38.4914 54.3166 38.5105 54.3183C38.5365 54.3205 38.5625 54.3216 38.5885 54.3216C38.8848 54.3216 39.181 54.1736 39.3662 53.902C39.665 53.4444 39.9031 52.992 40.0873 52.5446H43.0694C43.3287 52.5446 43.5879 52.4339 43.7731 52.2487C43.9583 52.0635 44.057 51.8039 44.057 51.5447L43.9459 44.5455H53.3277V53.532H55.3027V43.5581C55.3027 43.0151 54.8584 42.5702 54.3153 42.5702H42.946C42.8915 42.5702 42.8371 42.5752 42.7833 42.5845L42.749 42.5913C42.7334 42.5946 42.7179 42.5984 42.7024 42.6025C42.6311 42.6213 42.5617 42.6483 42.4957 42.6822C42.4627 42.6992 42.4304 42.7181 42.3993 42.7387C42.357 42.7667 42.3169 42.7978 42.2793 42.8317C42.2723 42.838 42.2653 42.8443 42.2585 42.851L42.2424 42.8668C42.0572 43.052 41.9585 43.311 41.9585 43.5702L42.0695 50.5694H40.5748C40.778 48.2548 39.7277 46.0804 38.4651 44.0265C37.4034 42.2937 37.6325 40.4763 39.2834 37.7519C39.7408 37.5372 40.0575 37.0725 40.0575 36.5336C40.0575 36.4935 40.0557 36.4541 40.0523 36.4149C42.8845 35.6414 45.009 32.3401 45.1063 29.3989C45.2174 25.9795 42.514 23.1154 39.0945 23.0043C37.4281 22.9425 35.8603 23.5478 34.6506 24.6836C33.4408 25.8192 32.7495 27.3619 32.7001 29.0162C32.6508 30.6456 33.2433 32.4852 34.2802 33.9419C35.1493 35.155 36.2175 35.9827 37.3778 36.3575C37.3703 36.4152 37.3664 36.474 37.3664 36.5336C37.3664 36.7458 37.4155 36.9467 37.503 37.1251ZM36.0084 26.1151C36.7985 25.3743 37.8107 24.9675 38.8971 24.9675H39.0328C41.366 25.0415 43.2053 26.9917 43.1312 29.3248C43.0571 31.7072 41.008 34.7073 38.7366 34.6086C36.5022 34.5344 34.6011 31.448 34.6752 29.0656C34.7123 27.9422 35.1814 26.8927 36.0084 26.1151Z" fill="#5F2167"/>
<path fill-rule="evenodd" clip-rule="evenodd" d="M48.6245 40.7806C46.0815 40.7806 44.0077 38.7066 44.0077 36.1635C44.0077 33.6205 46.0815 31.547 48.6245 31.547C51.1674 31.547 53.2413 33.6205 53.2413 36.1635C53.2413 38.7066 51.1674 40.7806 48.6245 40.7806ZM48.6245 33.5096C47.1679 33.5096 45.9828 34.6948 45.9828 36.1515C45.9828 37.6082 47.1679 38.7928 48.6245 38.7928C50.0811 38.7928 51.2662 37.6082 51.2662 36.1515C51.2662 34.6948 50.0811 33.5096 48.6245 33.5096Z" fill="#5F2167"/>
<path d="M45.1064 54.8532H47.0814V65H45.1064V54.8532Z" fill="#5F2167"/>
<path d="M52.1426 54.8532H50.1676V65H52.1426V54.8532Z" fill="#5F2167"/>
</svg>
