<svg width="32" height="32" viewBox="0 0 32 32" fill="none" xmlns="http://www.w3.org/2000/svg">
<rect width="32" height="32" rx="8" fill="#5F2167"/>
<rect x="6.51953" y="6.51852" width="18.963" height="18.963" rx="8" fill="#5F2167"/>
<path d="M20.3792 19.4942L19.9469 18.9643C20.8321 18.2437 21.3365 17.1783 21.3365 16.0461C21.3365 14.9087 20.8269 13.8434 19.9417 13.1228L20.3741 12.5927C21.4239 13.4419 22.0209 14.7028 22.0209 16.0461C22.0209 17.3893 21.4239 18.645 20.3792 19.4942Z" fill="#FAFAFA"/>
<path d="M9.41692 12.8551H15.9788V13.5396H9.41692V12.8551Z" fill="#FAFAFA"/>
<path d="M15.9788 14.59H9.41692V15.2744H15.9788V14.59Z" fill="#FAFAFA"/>
<path d="M18.6036 17.3125L18.1816 16.7722C18.4131 16.5921 18.5418 16.3295 18.5418 16.0413C18.5418 15.7531 18.408 15.4855 18.1713 15.3054L18.5881 14.7649C18.9947 15.0737 19.2263 15.5421 19.2263 16.0413C19.2263 16.5405 18.9999 17.0037 18.6036 17.3125Z" fill="#FAFAFA"/>
<path d="M19.0668 17.8733L19.4939 18.4034C20.2093 17.8269 20.6262 16.9674 20.6262 16.0462C20.6262 15.1198 20.2093 14.2552 19.4836 13.6788L19.0565 14.214C19.6175 14.6617 19.9417 15.3308 19.9417 16.0462C19.9417 16.7564 19.6226 17.4255 19.0668 17.8733Z" fill="#FAFAFA"/>
<path fill-rule="evenodd" clip-rule="evenodd" d="M22.9473 10.1019C23.6884 10.1019 24.2906 10.7041 24.2957 11.4503V20.5494C24.2957 21.2957 23.6884 21.8979 22.9473 21.8979H9.05153C8.30527 21.8979 7.70312 21.2906 7.70312 20.5494V11.4503C7.70312 10.7041 8.31042 10.1019 9.05153 10.1019H22.9473ZM22.9473 20.9973C23.1943 20.9973 23.4002 20.7965 23.4002 20.5443H23.3951V11.4452C23.3951 11.1981 23.1943 10.9923 22.9422 10.9923H9.04638C8.79935 10.9923 8.59347 11.193 8.59347 11.4452V18.0072H10.6212C10.9917 18.0072 11.2903 18.3057 11.2903 18.6763V20.9973H22.9473ZM10.3999 20.9973V18.8975H8.59347V20.5443C8.59347 20.7913 8.7942 20.9973 9.04638 20.9973H10.3999Z" fill="#FAFAFA"/>
</svg>
