<svg width="32" height="32" viewBox="0 0 32 32" fill="none" xmlns="http://www.w3.org/2000/svg">
<rect width="32" height="32" rx="8" fill="#E3E7F2"/>
<rect x="6.51953" y="6.51852" width="18.963" height="18.963" rx="8" fill="#E3E7F2"/>
<path d="M20.3811 19.4942L19.9488 18.9643C20.834 18.2437 21.3384 17.1783 21.3384 16.0461C21.3384 14.9087 20.8289 13.8434 19.9437 13.1228L20.376 12.5927C21.4259 13.4419 22.0229 14.7028 22.0229 16.0461C22.0229 17.3893 21.4259 18.645 20.3811 19.4942Z" fill="#FAFAFA"/>
<path d="M9.41887 12.8551H15.9808V13.5396H9.41887V12.8551Z" fill="#FAFAFA"/>
<path d="M15.9808 14.59H9.41887V15.2744H15.9808V14.59Z" fill="#FAFAFA"/>
<path d="M18.6055 17.3125L18.1835 16.7722C18.4151 16.5921 18.5438 16.3295 18.5438 16.0413C18.5438 15.7531 18.41 15.4855 18.1732 15.3054L18.5901 14.7649C18.9967 15.0737 19.2283 15.5421 19.2283 16.0413C19.2283 16.5405 19.0018 17.0037 18.6055 17.3125Z" fill="#FAFAFA"/>
<path d="M19.0687 17.8733L19.4959 18.4034C20.2112 17.8269 20.6281 16.9674 20.6281 16.0462C20.6281 15.1198 20.2112 14.2552 19.4856 13.6788L19.0584 14.214C19.6194 14.6617 19.9436 15.3308 19.9436 16.0462C19.9436 16.7564 19.6245 17.4255 19.0687 17.8733Z" fill="#FAFAFA"/>
<path fill-rule="evenodd" clip-rule="evenodd" d="M22.9493 10.1019C23.6904 10.1019 24.2925 10.7041 24.2977 11.4503V20.5494C24.2977 21.2957 23.6904 21.8979 22.9493 21.8979H9.05348C8.30722 21.8979 7.70508 21.2906 7.70508 20.5494V11.4503C7.70508 10.7041 8.31237 10.1019 9.05348 10.1019H22.9493ZM22.9493 20.9973C23.1963 20.9973 23.4022 20.7965 23.4022 20.5443H23.397V11.4452C23.397 11.1981 23.1963 10.9923 22.9441 10.9923H9.04833C8.8013 10.9923 8.59543 11.193 8.59543 11.4452V18.0072H10.6232C10.9937 18.0072 11.2922 18.3057 11.2922 18.6763V20.9973H22.9493ZM10.4019 20.9973V18.8975H8.59543V20.5443C8.59543 20.7913 8.79615 20.9973 9.04833 20.9973H10.4019Z" fill="#FAFAFA"/>
</svg>
