<svg width="32" height="32" viewBox="0 0 32 32" fill="none" xmlns="http://www.w3.org/2000/svg">
<rect width="32" height="32" rx="8" fill="#5F2167"/>
<rect x="6.51953" y="6.51852" width="18.963" height="18.963" rx="8" fill="#5F2167"/>
<path fill-rule="evenodd" clip-rule="evenodd" d="M8.5315 13.9162C8.5315 15.5779 9.8844 16.9307 11.5461 16.9307C13.2029 16.9307 14.5607 15.5779 14.5607 13.9162C14.5607 12.2545 13.2078 10.9016 11.5461 10.9016C9.8844 10.9016 8.5315 12.2545 8.5315 13.9162ZM9.31578 13.9162C9.31578 12.6858 10.3158 11.686 11.5461 11.686C12.7716 11.686 13.7764 12.6858 13.7764 13.9162C13.7764 15.1465 12.7764 16.1467 11.5461 16.1467C10.3158 16.1467 9.31578 15.1465 9.31578 13.9162Z" fill="#FAFAFA"/>
<path fill-rule="evenodd" clip-rule="evenodd" d="M12.4089 20.0683L12.5461 20.1909L12.8893 20.1222L13.7618 18.3379H14.698V21.0975H15.4823V17.9458C15.4823 17.7302 15.3058 17.5535 15.0901 17.5535H8.09526C7.87958 17.5535 7.70312 17.7302 7.70312 17.9458V21.0975H8.4874V18.3379H9.29837L9.86484 19.936L9.93838 20.1172L10.306 20.1859L11.4187 19.0782L12.4089 20.0683ZM12.5657 19.328L13.051 18.3379H11.5798L12.5657 19.328ZM9.9709 18.3379H11.2562L10.306 19.284L9.9709 18.3379Z" fill="#FAFAFA"/>
<path fill-rule="evenodd" clip-rule="evenodd" d="M21.2223 20.0683L21.3596 20.1909L21.7027 20.1222L22.5753 18.3379H23.5114V21.0975H24.2957V17.9458C24.2957 17.7302 24.1193 17.5535 23.9036 17.5535H16.9087C16.693 17.5535 16.5166 17.7302 16.5166 17.9458V21.0975H17.3008V18.3379H18.1111L18.6734 19.936L18.7518 20.1172L19.1194 20.1909L20.2322 19.0782L21.2223 20.0683ZM18.7843 18.3379L19.1194 19.284L20.0697 18.3379H18.7843ZM20.3933 18.3379H21.8645L21.3792 19.328L20.3933 18.3379Z" fill="#FAFAFA"/>
<path fill-rule="evenodd" clip-rule="evenodd" d="M20.3596 16.9307C18.6978 16.9307 17.3449 15.5779 17.3449 13.9162C17.3449 12.2545 18.6978 10.9016 20.3596 10.9016C22.0212 10.9016 23.3741 12.2545 23.3741 13.9162C23.3741 15.5779 22.0212 16.9307 20.3596 16.9307ZM20.3596 11.686C19.1292 11.686 18.1292 12.6858 18.1292 13.9162C18.1292 15.1465 19.1292 16.1467 20.3596 16.1467C21.5899 16.1467 22.5899 15.1465 22.5899 13.9162C22.5899 12.6858 21.585 11.686 20.3596 11.686Z" fill="#FAFAFA"/>
</svg>
