<svg width="32" height="32" viewBox="0 0 32 32" fill="none" xmlns="http://www.w3.org/2000/svg">
<rect width="32" height="32" rx="8" fill="#E3E7F2"/>
<rect x="6.51953" y="6.51852" width="18.963" height="18.963" rx="8" fill="#E3E7F2"/>
<path fill-rule="evenodd" clip-rule="evenodd" d="M8.53345 13.9162C8.53345 15.5779 9.88636 16.9307 11.5481 16.9307C13.2049 16.9307 14.5627 15.5779 14.5627 13.9162C14.5627 12.2545 13.2098 10.9016 11.5481 10.9016C9.88636 10.9016 8.53345 12.2545 8.53345 13.9162ZM9.31773 13.9162C9.31773 12.6858 10.3177 11.686 11.5481 11.686C12.7735 11.686 13.7784 12.6858 13.7784 13.9162C13.7784 15.1465 12.7784 16.1467 11.5481 16.1467C10.3177 16.1467 9.31773 15.1465 9.31773 13.9162Z" fill="#FAFAFA"/>
<path fill-rule="evenodd" clip-rule="evenodd" d="M12.4109 20.0683L12.5481 20.1909L12.8912 20.1222L13.7638 18.3379H14.7V21.0975H15.4842V17.9458C15.4842 17.7302 15.3078 17.5535 15.0921 17.5535H8.09722C7.88154 17.5535 7.70508 17.7302 7.70508 17.9458V21.0975H8.48935V18.3379H9.30032L9.86679 19.936L9.94033 20.1172L10.308 20.1859L11.4207 19.0782L12.4109 20.0683ZM12.5677 19.328L13.053 18.3379H11.5818L12.5677 19.328ZM9.97285 18.3379H11.2582L10.308 19.284L9.97285 18.3379Z" fill="#FAFAFA"/>
<path fill-rule="evenodd" clip-rule="evenodd" d="M21.2243 20.0683L21.3615 20.1909L21.7047 20.1222L22.5772 18.3379H23.5134V21.0975H24.2977V17.9458C24.2977 17.7302 24.1212 17.5535 23.9055 17.5535H16.9106C16.695 17.5535 16.5185 17.7302 16.5185 17.9458V21.0975H17.3028V18.3379H18.1131L18.6753 19.936L18.7538 20.1172L19.1214 20.1909L20.2341 19.0782L21.2243 20.0683ZM18.7863 18.3379L19.1214 19.284L20.0716 18.3379H18.7863ZM20.3952 18.3379H21.8665L21.3811 19.328L20.3952 18.3379Z" fill="#FAFAFA"/>
<path fill-rule="evenodd" clip-rule="evenodd" d="M20.3615 16.9307C18.6998 16.9307 17.3469 15.5779 17.3469 13.9162C17.3469 12.2545 18.6998 10.9016 20.3615 10.9016C22.0232 10.9016 23.3761 12.2545 23.3761 13.9162C23.3761 15.5779 22.0232 16.9307 20.3615 16.9307ZM20.3615 11.686C19.1312 11.686 18.1312 12.6858 18.1312 13.9162C18.1312 15.1465 19.1312 16.1467 20.3615 16.1467C21.5918 16.1467 22.5918 15.1465 22.5918 13.9162C22.5918 12.6858 21.587 11.686 20.3615 11.686Z" fill="#FAFAFA"/>
</svg>
