<svg width="32" height="32" viewBox="0 0 32 32" fill="none" xmlns="http://www.w3.org/2000/svg">
<path fill-rule="evenodd" clip-rule="evenodd" d="M2 12.9286C2 18.9545 6.90328 23.8494 12.9208 23.8494C15.6829 23.8494 18.2102 22.8181 20.1363 21.1195L29.0078 29.991L30 28.9988L21.1275 20.1263C22.8161 18.2036 23.8416 15.6844 23.8416 12.9286C23.8416 6.90273 18.9467 2.00781 12.9208 2.00781C6.89501 2.00781 2 6.90273 2 12.9286ZM3.40324 12.9286C3.40324 7.67871 7.6709 3.41085 12.9208 3.41085C18.1624 3.41085 22.4384 7.67871 22.4384 12.9286C22.4384 18.1785 18.1707 22.446 12.9208 22.446C7.6709 22.446 3.40324 18.1785 3.40324 12.9286Z" fill="#6F7587"/>
</svg>
