<svg width="24" height="24" viewBox="0 0 24 24" fill="none" xmlns="http://www.w3.org/2000/svg">
<path fill-rule="evenodd" clip-rule="evenodd" d="M14.8358 1.56006H10.167V2.62538H11.9718V4.41461C8.41167 4.62296 5.4102 6.90557 4.13837 10.0643L4.95928 10.9165C6.01213 7.75176 8.99513 5.46441 12.5045 5.46441C16.8913 5.46441 20.4633 9.03644 20.4633 13.4232C20.4633 17.8099 16.8913 21.3821 12.5045 21.3821C8.17793 21.3821 4.6438 17.9072 4.54768 13.6032L5.7489 14.8522L6.5197 14.1128L4.6534 12.176C4.65508 12.1656 4.65676 12.1552 4.65848 12.1447L4.01926 11.4806L3.61818 11.8879C3.61443 11.9093 3.61072 11.9308 3.60712 11.9522L1.5 14.1065L2.26453 14.8522L3.48224 13.6041C3.58226 18.4939 7.59122 22.4412 12.5045 22.4412C17.4803 22.4412 21.5287 18.3927 21.5287 13.4169C21.5287 11.1032 20.6534 8.99142 19.2165 7.39401L19.9715 6.63905L20.4884 7.15595C20.5886 7.25624 20.7203 7.30634 20.8518 7.30634C20.9834 7.30634 21.1151 7.2562 21.2278 7.14967L22.3496 6.02805C22.4436 5.9278 22.5 5.79614 22.5 5.65825C22.5 5.5204 22.4436 5.38875 22.3496 5.29473L20.7641 3.70922C20.5636 3.50867 20.2377 3.50867 20.0309 3.70922L18.9091 4.831C18.8089 4.93129 18.7525 5.05667 18.7525 5.20079C18.7525 5.34491 18.8026 5.47645 18.9029 5.57043L19.4397 6.1073L18.6909 6.85615C17.1951 5.44704 15.2189 4.54198 13.0371 4.41457V2.62538H14.8358V1.56006ZM20.8518 6.3726L19.6862 5.20706L20.3881 4.50511L21.5537 5.6708L20.8518 6.3726Z" fill="#D53711"/>
<path d="M11.9718 9.39966H13.0371V14.1562H11.9718V9.39966Z" fill="#D53711"/>
</svg>
