<svg width="72" height="72" viewBox="0 0 72 72" fill="none" xmlns="http://www.w3.org/2000/svg">
<rect width="72" height="72" rx="8" fill="#F1F3F9"/>
<rect x="16.3633" y="16.3635" width="39.2727" height="39.2727" rx="16" fill="#F1F3F9"/>
<path d="M18.8184 34.4524L20.2222 35.5904C24.1149 30.7938 29.8688 28.05 36.0055 28.05C42.1422 28.05 47.8961 30.7831 51.7781 35.5585L53.182 34.4207C48.9597 29.2199 42.6953 26.2417 36.0161 26.2417C29.3157 26.2417 23.0513 29.2303 18.8184 34.4524Z" fill="#5F2167"/>
<path d="M25.8698 40.6738L24.4553 39.5463C27.2843 36.0047 31.496 33.9733 36.0162 33.9733C40.515 33.9733 44.7161 35.9834 47.5451 39.5037L46.1413 40.6418C43.6632 37.5575 39.9727 35.7813 36.0268 35.7813C32.0491 35.7813 28.3586 37.5682 25.8698 40.6738Z" fill="#5F2167"/>
<path d="M31.5385 45.7581L30.1027 44.6626C31.5385 42.7801 33.6976 41.7059 36.0268 41.7059C38.324 41.7059 40.4618 42.7588 41.8976 44.6094L40.4724 45.7156C39.3769 44.3116 37.7604 43.5139 36.0268 43.5139C34.2613 43.5139 32.6234 44.3329 31.5385 45.7581Z" fill="#5F2167"/>
</svg>
